<svg width="400" height="300" viewBox="0 0 400 300" fill="none" xmlns="http://www.w3.org/2000/svg">
<rect width="400" height="300" rx="32" fill="#243A69"/>
<mask id="mask0_1_194" style="mask-type:luminance" maskUnits="userSpaceOnUse" x="119" y="38" width="162" height="148">
<path d="M119 70C119 52.3269 133.327 38 151 38H249C266.673 38 281 52.3269 281 70V154C281 171.673 266.673 186 249 186H151C133.327 186 119 171.673 119 154V70Z" fill="white"/>
</mask>
<g mask="url(#mask0_1_194)">
<path fill-rule="evenodd" clip-rule="evenodd" d="M243.329 38.3856C241.807 38.8298 237.177 41.7858 214.807 56.6015C210.67 59.3419 207.115 61.5825 206.904 61.5825C206.696 61.5825 206.524 61.2853 206.524 60.9194C206.524 60.5569 206.178 59.5836 205.753 58.7572C202.319 52.1039 193.943 50.5785 188.367 55.5922C186.28 57.4703 185.896 58.5155 183.172 69.7383L182.254 73.5207C181.485 76.6873 179.52 79.4333 176.771 81.1832V81.1832C167.487 87.0951 162.001 90.9754 160.569 92.6379C157.614 96.0675 156.617 101.552 158.257 105.344V105.344C158.612 106.163 158.011 107.078 157.118 107.078H144.321C130.369 107.078 129.534 107.117 127.6 107.855C122.974 109.626 119.441 114.603 119.051 119.901C118.52 127.058 122.213 132.842 128.588 134.838V134.838C129.963 135.27 131.013 136.389 131.354 137.789L136.028 156.931C138.905 168.699 141.607 179.02 142.035 179.866C142.988 181.748 145.018 183.622 147.256 184.677C148.928 185.468 148.998 185.471 197.693 185.576C231.947 185.651 246.948 185.563 248.111 185.275C250.452 184.697 253.489 182.531 254.697 180.582C255.519 179.259 256.795 174.513 261.002 157.136L265.955 136.67C266.148 135.87 266.802 135.264 267.614 135.132V135.132C270.967 134.583 274.9 131.412 276.681 127.819C277.601 125.957 277.749 125.193 277.867 121.662C277.995 117.814 277.95 117.517 276.885 115.191C275.507 112.186 273.03 109.593 270.264 108.27C268.397 107.375 267.611 107.245 263.029 107.078V107.078C261.409 107.018 260.811 104.921 262.156 104.016L266.498 101.094C271.236 97.9064 275.75 94.7055 276.537 93.9804C279.612 91.142 281.086 86.8861 280.488 82.5746C280.034 79.2953 279.868 78.9785 273.244 68.5396C270.223 63.7839 265.305 55.958 262.313 51.1501C256.673 42.083 255.225 40.3388 252.159 38.9148C250.122 37.9676 245.675 37.703 243.329 38.3856ZM248.655 47.7369C249.301 48.0374 251.372 51.0456 255.19 57.2319C258.265 62.2096 263.24 70.1727 266.249 74.9284C271.329 82.9633 271.696 83.6623 271.473 84.8904C271.338 85.6155 271.038 86.4517 270.804 86.7456C270.568 87.0396 267.975 88.885 265.04 90.848C262.105 92.811 255.564 97.2237 250.503 100.653L249.432 101.379C244.134 104.969 237.881 106.889 231.48 106.889H213.138C197.649 106.889 184.547 106.804 184.026 106.702V106.702C183.509 106.599 183.183 106.087 183.307 105.575L185.592 96.1753C187.853 86.8861 188.211 85.7462 189.128 84.9623C190.362 83.9073 189.151 84.7238 203.211 75.4836C217.79 65.9103 231.998 56.5133 238.91 51.8785C246.414 46.8452 246.586 46.7733 248.655 47.7369ZM196.875 62.546C197.485 62.9837 197.68 63.4802 197.649 64.5188C197.562 67.3245 197.236 67.9223 194.95 69.4705C193.745 70.287 192.722 70.9207 192.68 70.875C192.639 70.8325 192.997 69.023 193.476 66.8575C194.029 64.3392 194.576 62.742 194.985 62.4382C195.794 61.834 195.887 61.8373 196.875 62.546ZM228.66 69.0099C228.475 69.3725 228.133 73.8113 227.903 78.8805C227.676 83.9465 227.311 91.6254 227.097 95.9434C226.681 104.341 226.694 104.439 228.462 104.978C228.954 105.128 229.52 104.968 229.997 104.55C230.706 103.923 230.78 103.217 231.183 93.3532C231.419 87.5655 231.742 79.8669 231.899 76.2479C232.216 68.9609 232.072 68.3502 230.035 68.3502C229.424 68.3502 228.862 68.6212 228.66 69.0099ZM215.543 79.5664C211.917 81.3335 210.405 85.3052 212.007 88.8426C213.301 91.7038 215.511 93.1671 218.529 93.1671C222.42 93.1671 225.294 90.1131 225.294 85.9781C225.294 83.5774 224.05 81.1963 222.177 80.0139C220.348 78.8577 217.4 78.6617 215.543 79.5664ZM239.463 80.3569C237.82 80.7619 236.928 81.3367 235.665 82.8065C232.676 86.2851 233.702 91.5176 237.788 93.6374C240.205 94.8916 241.561 94.9341 243.687 93.8236C246.833 92.1839 248.255 89.1235 247.584 85.4587C247.213 83.4337 245.103 81.2583 242.852 80.5724C241.826 80.2621 240.892 80.0237 240.777 80.0466C240.662 80.0662 240.071 80.2066 239.463 80.3569ZM219.603 83.1854C221.214 83.8713 221.799 85.253 221.227 87.0233C220.748 88.5094 219.037 89.584 217.701 89.241C214.334 88.3755 214.724 83.4663 218.222 82.6628C218.279 82.6498 218.9 82.8849 219.603 83.1854ZM242.35 84.5605C245.228 85.8997 244.131 90.5345 240.937 90.5345C237.98 90.5345 236.695 87.0461 238.939 85.1158C240.176 84.051 240.979 83.9203 242.35 84.5605ZM175.24 99.0398C174.326 102.669 173.501 105.193 173.13 105.481C170.4 107.601 165.16 101.908 167.238 99.0757C167.861 98.2232 176.503 92.4518 176.637 92.7947C176.698 92.945 176.068 95.7539 175.24 99.0398ZM266.869 117.034C268.263 117.772 268.873 119.689 268.55 122.328C268.339 124.04 268.116 124.494 267.131 125.212V125.212C266.371 125.766 265.454 126.065 264.513 126.065H132.345C131.27 126.065 130.248 125.6 129.541 124.791V124.791C128.486 123.586 128.435 123.383 128.572 120.891C128.703 118.513 128.821 118.177 129.806 117.37V117.37C130.511 116.795 131.393 116.481 132.303 116.481L198.355 116.478C257.249 116.478 265.948 116.547 266.869 117.034ZM151.799 137.438C152.029 139.038 155.933 160.654 157.589 169.522C158.19 172.746 158.682 175.581 158.682 175.823C158.682 176.502 151.16 176.417 150.488 175.728C150.204 175.437 148.848 170.574 147.48 164.92C143.24 147.436 140.657 136.605 140.654 136.311C140.651 136.154 143.112 136.027 146.121 136.027H150.169C150.987 136.027 151.682 136.628 151.799 137.438V137.438ZM173.363 141.011C173.603 143.751 174.297 151.489 174.901 158.211C175.505 164.933 176.103 171.746 176.228 173.357V173.357C176.351 174.922 175.093 176.249 173.523 176.21L172.283 176.179L171.734 176.164C169.624 176.11 167.844 174.577 167.478 172.498V172.498C167.132 170.535 166.256 165.697 165.53 161.748C163.609 151.28 161.259 137.497 161.259 136.709C161.259 136.079 161.707 136.027 167.091 136.027H167.922C170.753 136.027 173.116 138.19 173.363 141.011V141.011ZM193.924 156.049L193.847 172.108C193.836 174.317 192.075 176.119 189.867 176.179V176.179C186.881 176.257 185.87 176.166 185.771 175.8C185.698 175.535 185.11 169.313 184.464 161.97C183.818 154.631 183.054 146.002 182.763 142.794C182.475 139.59 182.239 136.758 182.235 136.497C182.235 136.141 183.658 136.027 188.128 136.027V136.027C191.377 136.027 194.007 138.669 193.992 141.919L193.924 156.049ZM214.814 138.189C214.504 141.351 213.317 154.772 212.416 165.354C211.981 170.42 211.549 174.954 211.457 175.424C211.294 176.264 211.195 176.28 207.342 176.179V176.179C205.143 176.119 203.389 174.324 203.378 172.124L203.232 141.663C203.217 138.555 205.733 136.027 208.841 136.027H212.852C214.016 136.027 214.927 137.03 214.814 138.189V138.189ZM235.975 137.438C235.819 138.215 234.901 143.248 233.936 148.625C232.97 154.001 231.416 162.375 230.486 167.236L229.429 172.744C229.057 174.687 227.383 176.109 225.405 176.162L224.079 176.197C222.304 176.245 220.874 174.753 220.997 172.981V172.981C221.122 171.165 221.889 162.32 222.704 153.325C223.516 144.329 224.184 136.758 224.184 136.497C224.188 136.141 225.645 136.027 230.224 136.027H234.818C235.562 136.027 236.121 136.708 235.975 137.438V137.438ZM256.357 136.686C255.823 139.035 250.036 163.3 248.76 168.542C247.824 172.39 246.948 175.192 246.554 175.594C246.024 176.136 245.269 176.257 242.501 176.254C240.627 176.25 238.917 176.123 238.699 175.97C238.424 175.78 238.833 172.834 240.02 166.481C240.966 161.415 242.517 152.956 243.466 147.684C244.412 142.409 245.279 137.63 245.391 137.062V137.062C245.51 136.46 246.037 136.027 246.651 136.027H251.05C256.059 136.027 256.494 136.082 256.357 136.686Z" fill="#FEFEFE"/>
</g>
<path d="M37.82 229.92C37.82 227.147 38.42 224.68 39.62 222.52C40.82 220.333 42.4867 218.64 44.62 217.44C46.78 216.213 49.22 215.6 51.94 215.6C55.2733 215.6 58.1267 216.48 60.5 218.24C62.8733 220 64.46 222.4 65.26 225.44H57.74C57.18 224.267 56.38 223.373 55.34 222.76C54.3267 222.147 53.1667 221.84 51.86 221.84C49.7533 221.84 48.0467 222.573 46.74 224.04C45.4333 225.507 44.78 227.467 44.78 229.92C44.78 232.373 45.4333 234.333 46.74 235.8C48.0467 237.267 49.7533 238 51.86 238C53.1667 238 54.3267 237.693 55.34 237.08C56.38 236.467 57.18 235.573 57.74 234.4H65.26C64.46 237.44 62.8733 239.84 60.5 241.6C58.1267 243.333 55.2733 244.2 51.94 244.2C49.22 244.2 46.78 243.6 44.62 242.4C42.4867 241.173 40.82 239.48 39.62 237.32C38.42 235.16 37.82 232.693 37.82 229.92ZM82.7288 244.28C80.0888 244.28 77.6621 243.667 75.4488 242.44C73.2621 241.213 71.5154 239.507 70.2088 237.32C68.9287 235.107 68.2887 232.627 68.2887 229.88C68.2887 227.133 68.9287 224.667 70.2088 222.48C71.5154 220.293 73.2621 218.587 75.4488 217.36C77.6621 216.133 80.0888 215.52 82.7288 215.52C85.3688 215.52 87.7821 216.133 89.9688 217.36C92.1821 218.587 93.9154 220.293 95.1688 222.48C96.4488 224.667 97.0888 227.133 97.0888 229.88C97.0888 232.627 96.4488 235.107 95.1688 237.32C93.8888 239.507 92.1554 241.213 89.9688 242.44C87.7821 243.667 85.3688 244.28 82.7288 244.28ZM82.7288 238.04C84.9688 238.04 86.7554 237.293 88.0887 235.8C89.4488 234.307 90.1288 232.333 90.1288 229.88C90.1288 227.4 89.4488 225.427 88.0887 223.96C86.7554 222.467 84.9688 221.72 82.7288 221.72C80.4621 221.72 78.6488 222.453 77.2888 223.92C75.9554 225.387 75.2888 227.373 75.2888 229.88C75.2888 232.36 75.9554 234.347 77.2888 235.84C78.6488 237.307 80.4621 238.04 82.7288 238.04ZM126.014 244H119.174L107.734 226.68V244H100.894V215.92H107.734L119.174 233.32V215.92H126.014V244ZM137.812 221.4V227.08H146.972V232.36H137.812V238.52H148.172V244H130.972V215.92H148.172V221.4H137.812ZM151.453 229.92C151.453 227.147 152.053 224.68 153.253 222.52C154.453 220.333 156.119 218.64 158.253 217.44C160.413 216.213 162.853 215.6 165.573 215.6C168.906 215.6 171.759 216.48 174.133 218.24C176.506 220 178.093 222.4 178.893 225.44H171.373C170.813 224.267 170.013 223.373 168.973 222.76C167.959 222.147 166.799 221.84 165.493 221.84C163.386 221.84 161.679 222.573 160.373 224.04C159.066 225.507 158.413 227.467 158.413 229.92C158.413 232.373 159.066 234.333 160.373 235.8C161.679 237.267 163.386 238 165.493 238C166.799 238 167.959 237.693 168.973 237.08C170.013 236.467 170.813 235.573 171.373 234.4H178.893C178.093 237.44 176.506 239.84 174.133 241.6C171.759 243.333 168.906 244.2 165.573 244.2C162.853 244.2 160.413 243.6 158.253 242.4C156.119 241.173 154.453 239.48 153.253 237.32C152.053 235.16 151.453 232.693 151.453 229.92ZM203.282 215.92V221.4H195.842V244H189.002V221.4H181.562V215.92H203.282ZM224.194 239.04H213.714L212.034 244H204.874L215.034 215.92H222.954L233.114 244H225.874L224.194 239.04ZM222.434 233.76L218.954 223.48L215.514 233.76H222.434ZM243.047 238.72H252.007V244H236.207V215.92H243.047V238.72ZM268.549 244.28C265.909 244.28 263.482 243.667 261.269 242.44C259.082 241.213 257.336 239.507 256.029 237.32C254.749 235.107 254.109 232.627 254.109 229.88C254.109 227.133 254.749 224.667 256.029 222.48C257.336 220.293 259.082 218.587 261.269 217.36C263.482 216.133 265.909 215.52 268.549 215.52C271.189 215.52 273.602 216.133 275.789 217.36C278.002 218.587 279.736 220.293 280.989 222.48C282.269 224.667 282.909 227.133 282.909 229.88C282.909 232.627 282.269 235.107 280.989 237.32C279.709 239.507 277.976 241.213 275.789 242.44C273.602 243.667 271.189 244.28 268.549 244.28ZM268.549 238.04C270.789 238.04 272.576 237.293 273.909 235.8C275.269 234.307 275.949 232.333 275.949 229.88C275.949 227.4 275.269 225.427 273.909 223.96C272.576 222.467 270.789 221.72 268.549 221.72C266.282 221.72 264.469 222.453 263.109 223.92C261.776 225.387 261.109 227.373 261.109 229.88C261.109 232.36 261.776 234.347 263.109 235.84C264.469 237.307 266.282 238.04 268.549 238.04ZM285.554 229.92C285.554 227.147 286.154 224.68 287.354 222.52C288.554 220.333 290.221 218.64 292.354 217.44C294.514 216.213 296.954 215.6 299.674 215.6C303.008 215.6 305.861 216.48 308.234 218.24C310.608 220 312.194 222.4 312.994 225.44H305.474C304.914 224.267 304.114 223.373 303.074 222.76C302.061 222.147 300.901 221.84 299.594 221.84C297.488 221.84 295.781 222.573 294.474 224.04C293.168 225.507 292.514 227.467 292.514 229.92C292.514 232.373 293.168 234.333 294.474 235.8C295.781 237.267 297.488 238 299.594 238C300.901 238 302.061 237.693 303.074 237.08C304.114 236.467 304.914 235.573 305.474 234.4H312.994C312.194 237.44 310.608 239.84 308.234 241.6C305.861 243.333 303.008 244.2 299.674 244.2C296.954 244.2 294.514 243.6 292.354 242.4C290.221 241.173 288.554 239.48 287.354 237.32C286.154 235.16 285.554 232.693 285.554 229.92ZM334.663 239.04H324.183L322.503 244H315.343L325.503 215.92H333.423L343.583 244H336.343L334.663 239.04ZM332.903 233.76L329.423 223.48L325.983 233.76H332.903ZM353.515 238.72H362.475V244H346.675V215.92H353.515V238.72Z" fill="white"/>
</svg>
