<svg width="500" height="500" viewBox="0 0 500 500" fill="none" xmlns="http://www.w3.org/2000/svg">
<path d="M448.783 280.082H136.251C129.824 280.082 124.614 274.872 124.614 268.445V54.437C124.614 48.01 129.824 42.8 136.251 42.8H448.782C455.209 42.8 460.419 48.01 460.419 54.437V268.445C460.42 274.872 455.21 280.082 448.783 280.082Z" fill="#111827" stroke="#5BE8A4" stroke-width="1.5" stroke-miterlimit="10" stroke-linecap="round" stroke-linejoin="round"/>
<path d="M449.798 42.8H136.345C130.172 42.8 125.169 47.804 125.169 53.976V63.181H460.975V53.976C460.975 47.804 455.971 42.8 449.798 42.8Z" fill="#111827" stroke="#0E9051" stroke-width="1.5" stroke-miterlimit="10" stroke-linecap="round" stroke-linejoin="round"/>
<path d="M449.746 52.991C449.746 55.505 447.709 57.542 445.195 57.542C442.682 57.542 440.644 55.505 440.644 52.991C440.644 50.477 442.682 48.44 445.195 48.44C447.709 48.44 449.746 50.477 449.746 52.991Z" fill="#00BF63"/>
<path d="M433.184 52.991C433.184 55.505 431.146 57.542 428.633 57.542C426.12 57.542 424.082 55.505 424.082 52.991C424.082 50.477 426.12 48.44 428.633 48.44C431.146 48.44 433.184 50.477 433.184 52.991Z" fill="#76C95B"/>
<path d="M416.621 52.991C416.621 55.505 414.583 57.542 412.07 57.542C409.557 57.542 407.519 55.505 407.519 52.991C407.519 50.477 409.557 48.44 412.07 48.44C414.584 48.44 416.621 50.477 416.621 52.991Z" fill="#5BE8A4"/>
<path d="M444.676 121.966H141.467C139.01 121.966 137.018 119.974 137.018 117.518V81.351C137.018 78.894 139.01 76.903 141.467 76.903H444.676C447.133 76.903 449.124 78.895 449.124 81.351V117.518C449.125 119.975 447.133 121.966 444.676 121.966Z" fill="#111827"/>
<path d="M444.676 121.966H141.467C139.01 121.966 137.019 119.974 137.019 117.518V81.351C137.019 78.894 139.011 76.903 141.467 76.903H444.676C447.133 76.903 449.124 78.895 449.124 81.351V117.518C449.125 119.975 447.133 121.966 444.676 121.966Z" stroke="#0E9051" stroke-width="1.5" stroke-linecap="round" stroke-linejoin="round" stroke-dasharray="8.05 5.03"/>
<path d="M465.668 134.447H162.46C160.003 134.447 158.012 132.455 158.012 129.998V93.831C158.012 91.374 160.004 89.383 162.46 89.383H465.669C468.126 89.383 470.118 91.375 470.118 93.831V129.998C470.117 132.455 468.125 134.447 465.668 134.447Z" fill="#76C95B"/>
<path d="M454.618 118.577H377.274C373.594 118.577 370.612 115.594 370.612 111.915C370.612 108.235 373.595 105.253 377.274 105.253H454.618C458.298 105.253 461.28 108.236 461.28 111.915C461.281 115.594 458.298 118.577 454.618 118.577Z" fill="#111827" stroke="#5BE8A4" stroke-width="1.5" stroke-miterlimit="10" stroke-linecap="round" stroke-linejoin="round"/>
<path d="M454.728 114.992L453.14 113.404C453.578 112.829 453.842 112.115 453.842 111.338C453.842 109.454 452.31 107.922 450.426 107.922C448.542 107.922 447.01 109.454 447.01 111.338C447.01 113.222 448.542 114.754 450.426 114.754C451.146 114.754 451.813 114.529 452.364 114.148L453.968 115.752C454.073 115.857 454.21 115.909 454.348 115.909C454.485 115.909 454.623 115.857 454.728 115.752C454.938 115.541 454.938 115.201 454.728 114.992ZM450.427 113.679C449.135 113.679 448.085 112.629 448.085 111.337C448.085 110.046 449.135 108.995 450.427 108.995C451.719 108.995 452.769 110.045 452.769 111.337C452.769 112.629 451.718 113.679 450.427 113.679Z" fill="#5BE8A4"/>
<path d="M436.822 147.934H332.635V233.445H436.822V147.934Z" fill="#111827" stroke="#0E9051" stroke-width="1.5" stroke-miterlimit="10" stroke-linecap="round" stroke-linejoin="round" stroke-dasharray="8 5"/>
<path d="M389.612 144.091H381.566V151.777H389.612V144.091Z" fill="#111827" stroke="#0E9051" stroke-width="1.5" stroke-miterlimit="10" stroke-linecap="round" stroke-linejoin="round"/>
<path d="M440.846 144.091H432.8V151.777H440.846V144.091Z" fill="#111827" stroke="#0E9051" stroke-width="1.5" stroke-miterlimit="10" stroke-linecap="round" stroke-linejoin="round"/>
<path d="M336.659 144.091H328.613V151.777H336.659V144.091Z" fill="#111827" stroke="#0E9051" stroke-width="1.5" stroke-miterlimit="10" stroke-linecap="round" stroke-linejoin="round"/>
<path d="M332.815 194.533H332.456C330.334 194.533 328.613 192.812 328.613 190.69C328.613 188.568 330.334 186.847 332.456 186.847H332.815C334.938 186.847 336.658 188.568 336.658 190.69C336.658 192.812 334.938 194.533 332.815 194.533Z" fill="#111827" stroke="#0E9051" stroke-width="1.5" stroke-miterlimit="10" stroke-linecap="round" stroke-linejoin="round"/>
<path d="M437.003 194.533H436.644C434.522 194.533 432.801 192.812 432.801 190.69C432.801 188.568 434.522 186.847 436.644 186.847H437.003C439.125 186.847 440.846 188.568 440.846 190.69C440.846 192.812 439.125 194.533 437.003 194.533Z" fill="#111827" stroke="#0E9051" stroke-width="1.5" stroke-miterlimit="10" stroke-linecap="round" stroke-linejoin="round"/>
<path d="M389.612 229.602H381.566V237.288H389.612V229.602Z" fill="#111827" stroke="#0E9051" stroke-width="1.5" stroke-miterlimit="10" stroke-linecap="round" stroke-linejoin="round"/>
<path d="M440.846 229.602H432.8V237.288H440.846V229.602Z" fill="#111827" stroke="#0E9051" stroke-width="1.5" stroke-miterlimit="10" stroke-linecap="round" stroke-linejoin="round"/>
<path d="M336.659 229.602H328.613V237.288H336.659V229.602Z" fill="#111827" stroke="#0E9051" stroke-width="1.5" stroke-miterlimit="10" stroke-linecap="round" stroke-linejoin="round"/>
<path d="M435.96 243.68H350.876C345.601 243.68 341.324 239.404 341.324 234.129V167.72C341.324 162.445 345.6 158.168 350.876 158.168H435.96C441.235 158.168 445.511 162.444 445.511 167.72V234.128C445.511 239.404 441.235 243.68 435.96 243.68Z" fill="#00BF63"/>
<path d="M359.664 215.186C363.578 198.269 377.206 185.785 393.417 185.785C409.628 185.785 423.256 198.269 427.17 215.186" stroke="#111827" stroke-width="1.5" stroke-miterlimit="10" stroke-linecap="round" stroke-linejoin="round"/>
<path d="M359.664 185.786H427.171" stroke="#111827" stroke-width="1.5" stroke-miterlimit="10" stroke-linecap="round" stroke-linejoin="round"/>
<path d="M396.9 182.302H389.934V189.268H396.9V182.302Z" fill="#00BF63" stroke="#111827" stroke-width="1.5" stroke-miterlimit="10" stroke-linecap="round" stroke-linejoin="round"/>
<path d="M363.147 211.703H356.181V218.669H363.147V211.703Z" fill="#00BF63" stroke="#111827" stroke-width="1.5" stroke-miterlimit="10" stroke-linecap="round" stroke-linejoin="round"/>
<path d="M430.653 211.703H423.687V218.669H430.653V211.703Z" fill="#00BF63" stroke="#111827" stroke-width="1.5" stroke-miterlimit="10" stroke-linecap="round" stroke-linejoin="round"/>
<path d="M429.934 185.786C429.934 187.312 428.697 188.549 427.171 188.549C425.645 188.549 424.408 187.312 424.408 185.786C424.408 184.26 425.645 183.023 427.171 183.023C428.697 183.022 429.934 184.26 429.934 185.786Z" fill="#111827"/>
<path d="M362.427 185.786C362.427 187.312 361.19 188.549 359.664 188.549C358.138 188.549 356.901 187.312 356.901 185.786C356.901 184.26 358.138 183.023 359.664 183.023C361.19 183.022 362.427 184.26 362.427 185.786Z" fill="#111827"/>
<path d="M310.066 147.934H205.879V233.445H310.066V147.934Z" fill="#111827" stroke="#0E9051" stroke-width="1.5" stroke-miterlimit="10" stroke-linecap="round" stroke-linejoin="round" stroke-dasharray="8 5"/>
<path d="M262.856 144.091H254.81V151.777H262.856V144.091Z" fill="#111827" stroke="#0E9051" stroke-width="1.5" stroke-miterlimit="10" stroke-linecap="round" stroke-linejoin="round"/>
<path d="M314.089 144.091H306.044V151.777H314.089V144.091Z" fill="#111827" stroke="#0E9051" stroke-width="1.5" stroke-miterlimit="10" stroke-linecap="round" stroke-linejoin="round"/>
<path d="M209.903 144.091H201.857V151.777H209.903V144.091Z" fill="#111827" stroke="#0E9051" stroke-width="1.5" stroke-miterlimit="10" stroke-linecap="round" stroke-linejoin="round"/>
<path d="M206.059 194.533H205.7C203.578 194.533 201.857 192.812 201.857 190.69C201.857 188.568 203.578 186.847 205.7 186.847H206.059C208.181 186.847 209.902 188.568 209.902 190.69C209.902 192.812 208.181 194.533 206.059 194.533Z" fill="#111827" stroke="#0E9051" stroke-width="1.5" stroke-miterlimit="10" stroke-linecap="round" stroke-linejoin="round"/>
<path d="M310.246 194.533H309.887C307.765 194.533 306.044 192.812 306.044 190.69C306.044 188.568 307.765 186.847 309.887 186.847H310.246C312.369 186.847 314.089 188.568 314.089 190.69C314.089 192.812 312.369 194.533 310.246 194.533Z" fill="#111827" stroke="#0E9051" stroke-width="1.5" stroke-miterlimit="10" stroke-linecap="round" stroke-linejoin="round"/>
<path d="M262.856 229.602H254.81V237.288H262.856V229.602Z" fill="#111827" stroke="#0E9051" stroke-width="1.5" stroke-miterlimit="10" stroke-linecap="round" stroke-linejoin="round"/>
<path d="M314.089 229.602H306.044V237.288H314.089V229.602Z" fill="#111827" stroke="#0E9051" stroke-width="1.5" stroke-miterlimit="10" stroke-linecap="round" stroke-linejoin="round"/>
<path d="M209.903 229.602H201.857V237.288H209.903V229.602Z" fill="#111827" stroke="#0E9051" stroke-width="1.5" stroke-miterlimit="10" stroke-linecap="round" stroke-linejoin="round"/>
<path d="M309.203 243.68H224.119C218.844 243.68 214.568 239.404 214.568 234.129V167.72C214.568 162.445 218.844 158.168 224.119 158.168H309.203C314.478 158.168 318.754 162.444 318.754 167.72V234.128C318.755 239.404 314.478 243.68 309.203 243.68Z" fill="#00BF63"/>
<path d="M304.329 233.288H228.993C226.574 233.288 224.613 231.327 224.613 228.908V172.941C224.613 170.522 226.574 168.561 228.993 168.561H304.329C306.748 168.561 308.709 170.522 308.709 172.941V228.908C308.709 231.327 306.748 233.288 304.329 233.288Z" stroke="#111827" stroke-width="1.5" stroke-miterlimit="10" stroke-linecap="round" stroke-linejoin="round"/>
<path d="M224.665 211.368L247.512 192.919C250.5 190.506 254.78 190.556 257.711 193.036L279.373 211.368" stroke="#111827" stroke-width="1.5" stroke-miterlimit="10" stroke-linecap="round" stroke-linejoin="round"/>
<path d="M308.709 205.404L294.34 197.022C291.816 195.55 288.689 195.57 286.184 197.075L272.325 205.404" stroke="#111827" stroke-width="1.5" stroke-miterlimit="10" stroke-linecap="round" stroke-linejoin="round"/>
<path d="M278.643 186.935C278.643 189.494 276.569 191.568 274.01 191.568C271.451 191.568 269.377 189.494 269.377 186.935C269.377 184.376 271.451 182.302 274.01 182.302C276.569 182.302 278.643 184.376 278.643 186.935Z" stroke="#111827" stroke-width="1.5" stroke-miterlimit="10" stroke-linecap="round" stroke-linejoin="round"/>
<path d="M410.865 333.816H334.966C328.796 333.816 323.795 328.814 323.795 322.645V270.116C323.795 263.946 328.797 258.944 334.966 258.944H410.865C417.035 258.944 422.036 263.946 422.036 270.116V322.645C422.037 328.814 417.035 333.816 410.865 333.816Z" fill="#111827" stroke="#00BF63" stroke-width="1.5" stroke-miterlimit="10" stroke-linecap="round" stroke-linejoin="round"/>
<path d="M354.218 309.04L354.218 309.04L332.43 300.333V293.606L354.218 284.899L354.218 284.899C356.754 283.886 359.513 285.754 359.513 288.486C359.513 290.092 358.519 291.531 357.016 292.099L345.539 296.435L339.684 294.223L339.007 293.968V294.691V299.249V299.972L339.684 299.717L345.539 297.504L357.016 301.841L357.016 301.841C358.519 302.408 359.513 303.847 359.513 305.454C359.513 308.185 356.754 310.053 354.218 309.04ZM340.007 295.414L344.124 296.97L340.007 298.526V295.414Z" fill="#00BF63" stroke="#00BF63"/>
<path d="M373.914 275.615L364.132 314.741C363.523 317.179 365.366 319.54 367.879 319.54H368.171C369.943 319.54 371.488 318.334 371.918 316.615L373.914 275.615ZM373.914 275.615C373.914 275.615 373.914 275.615 373.914 275.615C374.344 273.896 375.889 272.69 377.661 272.69H377.953C380.466 272.69 382.309 275.051 381.7 277.489C381.7 277.489 381.7 277.489 381.7 277.489L371.918 316.615L373.914 275.615Z" fill="#00BF63" stroke="#00BF63"/>
<path d="M391.613 284.899L391.613 284.899L413.401 293.606V300.333L391.613 309.04L391.613 309.04C389.077 310.053 386.318 308.185 386.318 305.453C386.318 303.847 387.312 302.408 388.815 301.84C388.815 301.84 388.815 301.84 388.815 301.84L400.292 297.503L406.147 299.716L406.824 299.971V299.248V294.69V293.967L406.147 294.222L400.292 296.434L388.815 292.098C388.815 292.098 388.815 292.098 388.815 292.098C387.313 291.531 386.318 290.092 386.318 288.486C386.318 285.754 389.077 283.886 391.613 284.899ZM405.824 298.525L401.707 296.969L405.824 295.413V298.525Z" fill="#00BF63" stroke="#00BF63"/>
<path d="M56.756 270.284C11.163 319.296 9.064 409.858 76.213 441.007C118.132 460.452 191.069 462.779 225.561 434.81C257.93 408.563 260.642 375.028 254.896 355.021C248.181 331.64 238.056 323.511 223.069 309.14C214.106 300.545 204.533 292.123 198.839 281.177C196.91 277.469 195.467 273.536 193.628 269.784C184.4 250.95 166.91 238.779 146.141 235.754C135.969 234.272 125.544 234.682 115.47 236.643C92.736 241.071 72.091 253.381 56.756 270.284Z" fill="#F7F7F7"/>
<path d="M56.756 270.284C11.163 319.296 9.064 409.858 76.213 441.007C118.132 460.452 189.492 460.713 225.561 434.81C257.291 412.024 260.642 375.028 254.896 355.021C248.181 331.64 238.056 323.511 223.069 309.14C214.106 300.545 204.533 292.123 198.839 281.177C196.91 277.469 195.467 273.536 193.628 269.784C184.4 250.95 166.91 238.779 146.141 235.754C135.969 234.272 125.544 234.682 115.47 236.643C92.736 241.071 72.091 253.381 56.756 270.284Z" fill="#275B42" stroke="#111827" stroke-width="1.5" stroke-miterlimit="10" stroke-linecap="round" stroke-linejoin="round"/>
<path d="M106.256 238.661C85.978 246.692 68.904 260.779 58.051 277.95C47.198 295.12 41.594 314.607 39.365 334.187C36.686 357.713 39.158 385.405 50.615 406.761C62.072 428.117 88.721 447.786 114.861 452.558" stroke="#49A177" stroke-width="1.5" stroke-miterlimit="10" stroke-linecap="round" stroke-linejoin="round"/>
<path d="M38.85 311.633C41.96 311.412 45.111 311.754 48.095 312.639" stroke="#5BE8A4" stroke-width="1.5" stroke-miterlimit="10" stroke-linecap="round" stroke-linejoin="round"/>
<path d="M46.065 318.861C43.015 318.583 39.943 318.526 36.884 318.69" stroke="#5BE8A4" stroke-width="1.5" stroke-miterlimit="10" stroke-linecap="round" stroke-linejoin="round"/>
<path d="M72.126 361.34C93.484 357.672 116.447 365.002 131.433 380.271" stroke="#0E9051" stroke-width="1.5" stroke-miterlimit="10" stroke-linecap="round" stroke-linejoin="round"/>
<path d="M74.656 344.391C88.589 347.463 101.361 355.045 110.26 365.967" stroke="#0E9051" stroke-width="1.5" stroke-miterlimit="10" stroke-linecap="round" stroke-linejoin="round"/>
<path d="M263.536 453.133C257.762 448.601 252.182 443.763 247.33 438.239C242.494 432.734 237.475 429.06 240.868 419.537C244.261 410.014 245.953 406.534 249.627 396.974C257.785 375.749 260.559 371.456 264.494 356.138C268.416 340.87 269.425 324.942 246.957 318.862C221.986 312.104 188.234 308.617 188.234 308.617H96.559C96.559 308.617 96.852 348.286 115.482 360.409C134.111 372.531 164.42 373.677 190.153 370.341C203.837 368.567 214.44 366.912 219.914 365.968C218.319 370.341 215.617 377.804 214.298 393.501C213.608 401.713 213.773 408.041 212.063 412.679C210.897 415.841 204.73 423.078 202.178 427.646C200.924 429.892 199.461 433.278 200.264 436.406C200.918 438.952 202.838 440.755 205.286 441.712C211.539 444.157 218.204 445.608 224.134 448.755C227.723 450.66 230.965 453.146 234.41 455.3C237.616 457.304 241.001 459.02 244.512 460.422C248.372 461.963 252.447 463.109 256.609 463.371C259.89 463.578 265.957 463.763 267.647 460.264C269.141 457.174 265.664 454.802 263.536 453.133Z" fill="#F2B6B1"/>
<path d="M229.564 351.006C225.959 354.06 221.736 360.408 219.913 365.966" stroke="#111827" stroke-width="1.5" stroke-miterlimit="10" stroke-linecap="round" stroke-linejoin="round"/>
<path d="M198.232 435.002C198.232 435.002 195.253 440.948 194.046 446.496C194.046 446.496 197.842 449.471 206.512 452.628C215.181 455.785 218.423 455.373 218.423 455.373L219.767 451.681C219.767 451.681 224.44 453.724 230.722 458.443C237.004 463.162 239.714 465.405 249.186 468.855C258.658 472.304 265.044 473.503 270.428 473.108C272.77 473.141 274.986 467.815 272.104 466.243C269.223 464.671 198.232 435.002 198.232 435.002Z" fill="#F7F7F7" stroke="#111827" stroke-width="1.5" stroke-miterlimit="10" stroke-linecap="round" stroke-linejoin="round"/>
<path d="M218.319 423.364C222.192 425.855 229.012 424.391 229.012 424.391C229.012 424.391 233.712 433.844 227.918 434.197C224.36 434.413 220.966 431.272 218.319 423.364Z" fill="#111827"/>
<path d="M219.064 424.434C218.072 422.914 216.958 421.541 215.333 420.558C213.992 419.747 210.897 417.709 211.42 415.805C211.433 415.758 212.277 412.688 212.277 412.688C208.029 411.091 207.122 416.271 204.484 421.07C202.607 424.485 198.786 428.396 197.847 435.805C204.597 441.05 209.081 441.487 217.247 444.386C225.414 447.285 231.305 453.01 238.614 457.581C245.923 462.152 262.835 468.535 273.469 467.396C276.131 461.331 277.904 459.202 267.623 453.21C257.342 447.219 252.164 441.025 249.544 437.535C246.763 433.831 243.125 429.22 242.385 422.481C242.285 421.569 241.714 420.747 240.838 420.473C238.314 419.683 228.86 419.877 227.55 422.648C226.543 424.777 227.151 427.212 227.599 429.401C227.74 430.09 228.467 431.473 228.128 432.104C227.663 432.971 226.235 432.654 225.56 432.308C223.335 431.167 221.837 429.005 220.548 426.863C220.051 426.038 219.574 425.216 219.064 424.434Z" fill="#5E677A"/>
<path d="M227.689 422.504C226.823 423.654 226.881 425.242 227.116 426.663C227.571 429.413 228.549 432.075 229.981 434.466C230.985 436.142 232.259 438.098 231.465 439.883C230.943 441.056 229.638 441.71 228.364 441.871C227.09 442.032 225.804 441.797 224.525 441.686C223.107 441.563 221.675 441.592 220.263 441.774C218.614 441.986 216.872 442.48 215.828 443.774" stroke="#111827" stroke-width="1.5" stroke-miterlimit="10" stroke-linecap="round" stroke-linejoin="round"/>
<path d="M273.468 467.397C276.13 461.332 277.903 459.203 267.622 453.211C257.341 447.22 252.163 441.026 249.543 437.536C246.762 433.832 243.124 429.221 242.384 422.482" stroke="#111827" stroke-width="1.5" stroke-miterlimit="10" stroke-linecap="round" stroke-linejoin="round"/>
<path d="M197.846 435.806C204.596 441.051 209.08 441.488 217.246 444.387C225.413 447.286 231.304 453.011 238.613 457.582C245.922 462.153 262.834 468.536 273.468 467.397" stroke="#111827" stroke-width="1.5" stroke-miterlimit="10" stroke-linecap="round" stroke-linejoin="round"/>
<path d="M331.908 443.358C330.439 441.459 327.79 441.033 325.402 440.782C316.75 439.873 308.027 439.376 299.482 437.657C292.612 436.275 284.915 434.786 281.727 427.583C279.214 421.904 277.55 418.119 273.158 406.681C269.084 396.068 263.54 378.767 254.856 354.481C246.125 330.065 236.834 327.971 222.901 325.607C201.487 321.973 188.314 320.136 152.434 317.643L94.661 318.598C96.894 343.566 99.306 362.876 117.737 372.418C134.467 381.08 163.471 379.75 182.619 378.199C203.441 376.513 211.68 375.365 218.584 374.704C222.233 397.315 230.921 403.345 240.066 417.006C243.915 422.755 250.39 429.09 253.379 437.038C254.728 440.624 253.835 445.117 254.318 448.871C254.626 451.266 254.869 453.296 254.958 455.721C255.06 458.498 256.064 461.253 257.848 463.393C258.571 464.26 259.429 465.041 260.459 465.502C262.81 466.554 265.528 465.779 268.01 465.09C274.125 463.393 280.406 462.296 286.734 461.82C291.547 461.458 296.382 461.455 301.19 461.034C309.511 460.305 317.747 458.306 325.346 454.838C327.665 453.78 330.003 452.519 331.514 450.466C333.026 448.415 333.468 445.374 331.908 443.358Z" fill="#F2B6B1"/>
<path d="M254.697 463.858C254.697 463.858 255.754 470.692 258.072 476.12C258.072 476.12 263.081 476.354 272.33 473.809C281.579 471.264 284.077 468.962 284.077 468.962L282.993 465.024C282.993 465.024 288.184 463.941 296.35 464.157C304.516 464.373 308.164 464.642 318.269 461.86C328.374 459.078 334.508 456.248 338.833 452.67C340.838 451.288 339.508 445.439 336.119 445.843C332.73 446.245 254.697 463.858 254.697 463.858Z" fill="#F7F7F7" stroke="#111827" stroke-width="1.5" stroke-miterlimit="10" stroke-linecap="round" stroke-linejoin="round"/>
<path d="M264.711 441.897C269.493 441.675 274.391 436.327 274.391 436.327C274.391 436.327 284.068 441.508 279.37 445.296C276.487 447.622 271.718 447.004 264.711 441.897Z" fill="#111827"/>
<path d="M265.987 442.355C264.231 441.664 262.459 441.171 260.49 441.317C258.865 441.437 255.014 441.574 254.312 439.645C254.295 439.598 253.162 436.487 253.162 436.487C248.6 437.693 250.951 442.628 251.606 448.285C252.072 452.31 251.189 457.925 254.856 464.77C263.735 465.15 267.799 462.819 276.466 460.358C285.133 457.897 293.574 459.2 302.521 458.672C311.468 458.144 329.645 453.368 337.972 445.998C336.575 439.255 336.796 436.382 324.474 437.497C312.153 438.611 304.033 436.481 299.711 435.101C295.123 433.636 289.263 431.921 284.577 426.654C283.943 425.942 282.964 425.589 282.057 425.884C279.442 426.735 271.547 432.593 272.106 435.73C272.535 438.141 274.517 439.839 276.215 441.424C276.75 441.923 278.198 442.657 278.292 443.396C278.42 444.411 277.019 445.002 276.239 445.115C273.666 445.488 271.094 444.558 268.711 443.519C267.79 443.119 266.891 442.711 265.987 442.355Z" fill="#5E677A"/>
<path d="M253.162 436.488C248.6 437.694 250.951 442.629 251.606 448.286C252.072 452.311 251.189 457.926 254.856 464.771" stroke="#111827" stroke-width="1.5" stroke-miterlimit="10" stroke-linecap="round" stroke-linejoin="round"/>
<path d="M272.134 435.525C272.093 437.021 273.098 438.332 274.153 439.395C276.195 441.451 278.627 443.119 281.28 444.283C283.14 445.099 285.398 445.99 285.8 447.981C286.064 449.29 285.352 450.63 284.369 451.534C283.387 452.438 282.155 453.013 281.004 453.689C279.728 454.439 278.532 455.326 277.445 456.33C276.175 457.503 274.996 458.97 274.891 460.696" stroke="#111827" stroke-width="1.5" stroke-miterlimit="10" stroke-linecap="round" stroke-linejoin="round"/>
<path d="M337.971 445.999C336.574 439.256 336.795 436.383 324.473 437.498C312.152 438.612 304.032 436.482 299.71 435.102C295.122 433.637 289.262 431.922 284.576 426.655" stroke="#111827" stroke-width="1.5" stroke-miterlimit="10" stroke-linecap="round" stroke-linejoin="round"/>
<path d="M254.855 464.771C263.734 465.151 267.798 462.82 276.465 460.359C285.132 457.898 293.573 459.201 302.52 458.673C311.467 458.145 329.644 453.369 337.971 445.999" stroke="#111827" stroke-width="1.5" stroke-miterlimit="10" stroke-linecap="round" stroke-linejoin="round"/>
<path d="M100.29 308.616H185.27C179.829 308.013 220.668 311.361 246.236 317.773C261.97 321.718 272.286 332.583 264.956 356.925C257.626 381.268 248.189 402.35 248.189 402.35C248.189 402.35 224.563 403.05 213.926 393.082C213.926 393.082 214.204 377.951 218.318 367.845C218.318 367.845 173.193 376.864 143.377 371.608C113.561 366.352 103.88 354.957 100.149 343.583C96.419 332.209 95.023 308.804 95.023 308.804L100.29 308.616Z" fill="#4F695D"/>
<path d="M228.373 350.738C218.488 362.103 215.826 368.311 213.944 392.5" stroke="#111827" stroke-width="1.5" stroke-miterlimit="10" stroke-linecap="round" stroke-linejoin="round"/>
<path d="M214.73 382.762C212.424 383.035 211.697 384.858 212.246 388.285C212.794 391.712 212.525 393.857 211.629 397.401C210.702 401.068 211.903 405.626 222.185 409.19C232.466 412.754 244.05 412.206 246.518 410.287C248.986 408.368 248.754 404.708 250.984 401.171C252.14 399.338 255.107 395.459 251.986 393.36L250.462 397.056C250.462 397.056 242.916 399.075 230.812 395.511C218.707 391.947 214.356 387.675 214.356 387.675L214.73 382.762Z" fill="#111827"/>
<path d="M89.508 308.616C89.508 336.23 96.559 362.05 117.142 373.04C135.62 382.906 175.53 381.427 217.821 375.853C219.84 387.818 222.692 394.234 230.102 405.03C237.512 415.827 244.193 424.172 244.193 424.172C244.193 424.172 253.348 424.991 262.419 420.716C271.491 416.441 275.011 409.62 275.011 409.62C275.011 409.62 260.129 359.311 254.046 343.103C249.203 330.199 244.589 327.348 219.28 323.692C210.381 322.407 193.752 321.252 183.313 319.95C166.994 306.609 160.94 308.616 160.94 308.616H89.508Z" fill="#4F695D"/>
<path d="M160.941 308.616C171.558 310.726 178.346 315.885 181.194 318.311C182.423 319.357 183.916 320.033 185.516 320.239C192.485 321.136 214.32 322.924 219.28 323.693C239.567 326.836 248.536 327.637 254.046 343.104C258.746 356.296 263.061 370.34 263.061 370.34" stroke="#111827" stroke-width="1.5" stroke-miterlimit="10" stroke-linecap="round" stroke-linejoin="round"/>
<path d="M216.672 356.651C215.929 369.549 217.107 377.816 220.438 386.893C223.769 395.971 233.496 410.751 239.361 417.901" stroke="#111827" stroke-width="1.5" stroke-miterlimit="10" stroke-linecap="round" stroke-linejoin="round"/>
<path d="M103.916 308.315C103.916 325.162 111.661 350.941 126.658 358.486C141.655 366.031 169.006 366.245 216.458 365.113" stroke="#111827" stroke-width="1.5" stroke-miterlimit="10" stroke-linecap="round" stroke-linejoin="round"/>
<path d="M216.507 360.408C222.365 360.408 223.77 363.068 226.909 376.763C231.03 394.745 244.323 410.839 254.046 421.568" stroke="#111827" stroke-width="1.5" stroke-miterlimit="10" stroke-linecap="round" stroke-linejoin="round"/>
<path d="M237.097 414.857L239.362 417.901C239.362 417.901 248.44 418.597 258.955 413.593C269.47 408.589 272.54 402.106 272.54 402.106L271.286 398.329C271.286 398.329 274.929 396.609 276.142 401.31C277.355 406.011 276.368 407.224 278.227 409.802C280.085 412.38 280.085 414.806 276.446 419.355C272.807 423.904 257.835 432.71 248.503 431.366C239.474 430.066 242.673 425.552 240.702 423.363C238.73 421.175 234.749 419.76 237.097 414.857Z" fill="#111827"/>
<path d="M123.975 174.277L122.697 153.332C129.127 152.317 134.817 152.051 136.775 151.364C139.599 150.374 142 146.454 142.691 143.65C142.859 142.968 143.555 142.549 144.216 142.789C146.586 143.649 148.798 146.678 148.77 151.488C153.16 148.555 156.988 148.892 154.645 154.176C152.302 159.459 150.48 159.951 150.48 159.951C150.48 159.951 156.074 158.077 155.927 160.756C155.78 163.435 150.781 164.882 150.781 164.882C150.781 164.882 152.973 170.459 148.157 172.657L123.975 174.277Z" fill="#111827"/>
<path d="M102.691 176.28C102.962 188.829 114.048 202.293 127.187 202.009C140.326 201.725 150.543 187.801 150.272 175.252C150.001 162.703 139.129 152.76 125.99 153.044C112.852 153.328 102.42 163.731 102.691 176.28Z" fill="#111827"/>
<path d="M113.007 197.993C113.173 200.713 114.266 203.199 116.239 205.04L116.459 220.83L107.415 223.887C111.22 228.576 120.351 233.823 133.068 233.047C145.785 232.271 148.039 221.894 148.039 221.894L140.13 218.905L139.242 211.092C140.787 211.017 146.761 210.529 149.424 207.625C152.087 204.721 151.534 201.014 150.971 195.128C150.668 191.954 150.339 187.254 150.403 184.347C150.48 180.817 150.648 178.717 150.262 174.223C149.695 167.629 145.832 162.497 145.832 162.497C143.424 166.313 131.264 168.511 122.978 162.42C117.612 162.747 112.823 166.851 112.031 171.022C113.965 174.419 116.013 178.044 116.015 183.042C116.068 186.489 115.313 186.643 113.924 185.094C112.066 183.09 109.323 181.428 106.51 181.528C102.847 181.658 100.553 183.894 100.093 186.552C99.638 189.179 101.825 191.925 104.41 192.884C106.996 193.842 110.361 193.713 112.647 192.106C112.647 192.106 112.841 195.273 113.007 197.993Z" fill="#F2B6B1"/>
<path d="M139.243 211.093C133.378 211.311 126.693 210.454 122.604 208.363C123.84 210.783 128.566 214.442 139.709 215.195L139.243 211.093Z" fill="#111827"/>
<path d="M139.169 180.873C139.459 179.344 140.808 178.428 142.388 178.103C143.969 177.779 146.304 177.878 146.999 180.058C146.684 182.379 141.704 183.678 139.169 180.873Z" fill="#F7F7F7"/>
<path d="M145.954 181.075C145.595 182.106 144.426 182.643 143.345 182.274C142.263 181.905 141.678 180.77 142.037 179.739C142.396 178.708 143.565 178.171 144.646 178.54C145.728 178.909 146.313 180.044 145.954 181.075Z" fill="#111827"/>
<path d="M141.888 179.701L143.995 180.407L141.743 180.831L141.888 179.701Z" fill="#F7F7F7"/>
<path d="M147.206 179.611C146.011 178.1 144.136 177.933 142.555 178.257C140.974 178.581 139.467 179.785 139.17 180.873" stroke="#111827" stroke-width="1.5" stroke-miterlimit="10" stroke-linecap="round" stroke-linejoin="round"/>
<path d="M140.498 169.59C143.71 169.232 147.023 170.494 148.75 172.347" stroke="#111827" stroke-width="1.5" stroke-miterlimit="10" stroke-linecap="round" stroke-linejoin="round"/>
<path d="M123.121 182.101C123.411 180.572 124.76 179.656 126.34 179.331C127.921 179.007 130.256 179.106 130.951 181.286C130.636 183.607 125.656 184.906 123.121 182.101Z" fill="#F7F7F7"/>
<path d="M129.906 182.303C129.547 183.334 128.378 183.871 127.297 183.502C126.215 183.133 125.63 181.998 125.989 180.967C126.348 179.936 127.517 179.399 128.598 179.768C129.68 180.137 130.265 181.271 129.906 182.303Z" fill="#111827"/>
<path d="M125.84 180.928L127.947 181.635L125.695 182.058L125.84 180.928Z" fill="#F7F7F7"/>
<path d="M131.158 180.839C129.963 179.328 128.088 179.161 126.507 179.485C124.926 179.809 123.419 181.014 123.122 182.101" stroke="#111827" stroke-width="1.5" stroke-miterlimit="10" stroke-linecap="round" stroke-linejoin="round"/>
<path d="M119.668 176.153C120.757 173.402 124.103 170.81 127.26 170.381" stroke="#111827" stroke-width="1.5" stroke-miterlimit="10" stroke-linecap="round" stroke-linejoin="round"/>
<path d="M136.115 176.066C137.082 180.622 139.052 183.412 140.257 185.663C141.181 187.389 141.417 190.445 137.007 190.848" stroke="#111827" stroke-width="1.5" stroke-miterlimit="10" stroke-linecap="round" stroke-linejoin="round"/>
<path d="M103.846 186.396C104.472 185.885 106.069 185.41 107.739 185.728C109.409 186.046 110.862 187.228 111.455 188.751" stroke="#111827" stroke-width="1.5" stroke-miterlimit="10" stroke-linecap="round" stroke-linejoin="round"/>
<path d="M106.773 187.966C107.235 187.593 108.884 186.608 110.62 187.386" stroke="#111827" stroke-width="1.5" stroke-miterlimit="10" stroke-linecap="round" stroke-linejoin="round"/>
<path d="M119.646 182.149C120.116 186.238 123.811 189.172 127.9 188.702C131.989 188.232 134.923 184.537 134.453 180.448C133.983 176.359 130.691 176.765 126.602 177.234C122.513 177.704 119.176 178.06 119.646 182.149Z" stroke="#111827" stroke-width="1.5" stroke-miterlimit="10" stroke-linecap="round" stroke-linejoin="round"/>
<path d="M139.331 179.908C139.609 184.014 143.164 187.118 147.27 186.839C151.376 186.561 154.48 183.006 154.202 178.9C153.924 174.793 150.616 175.045 146.51 175.323C142.403 175.602 139.053 175.801 139.331 179.908Z" stroke="#111827" stroke-width="1.5" stroke-miterlimit="10" stroke-linecap="round" stroke-linejoin="round"/>
<path d="M139.593 181.862C138.093 180.495 135.63 180.943 134.712 182.16" stroke="#111827" stroke-width="1.5" stroke-miterlimit="10" stroke-linecap="round" stroke-linejoin="round"/>
<path d="M119.52 182.143L114.252 183.691" stroke="#111827" stroke-width="1.5" stroke-miterlimit="10" stroke-linecap="round" stroke-linejoin="round"/>
<path d="M130.298 195.172C133.333 197.211 137.421 197.576 140.77 196.108" stroke="#111827" stroke-width="1.5" stroke-miterlimit="10" stroke-linecap="round" stroke-linejoin="round"/>
<path d="M265.32 240.895C265.237 240.508 265.08 240.14 264.865 239.808C264.168 238.728 262.871 238.022 261.604 238.241C262.914 237.269 263.301 235.254 262.445 233.866C261.589 232.478 259.614 231.919 258.158 232.654C259.015 231.904 260.201 229.308 258.218 227.057C256.352 224.938 253.509 227.23 253.421 227.137C253.421 227.137 256.581 221.072 257.239 219.851C258.489 217.531 259.303 216.236 259.569 214.551C259.876 212.607 257.923 211.08 256.126 212.111C254.208 213.211 253.129 215.496 251.561 217.885C249.643 220.81 246.594 226.08 244.206 229.504C242.898 231.379 242.492 232.242 242.025 232.142C241.038 231.93 241.31 229.352 241.489 228.284C241.761 226.653 242.153 224.987 241.83 223.332C241.599 222.15 240.289 220.728 238.962 221.252C238.644 221.377 238.393 221.628 238.181 221.897C237.128 223.234 236.715 225.461 236.158 227.064C235.492 228.982 234.9 230.926 234.384 232.89C233.672 235.602 233.011 238.28 231.94 241.133C230.869 243.986 228.943 247.46 227.123 248.752C219.333 254.283 206.693 261.626 202.718 263.908C198.013 258.699 187.728 247.272 183.884 242.667C178.832 236.612 175.155 229.619 163.674 226.441C160.907 227.319 166.073 266.266 166.073 266.266C166.073 266.266 174.264 274.741 181.943 281.768C191.342 290.369 194.271 292.512 199.97 293.533C204.248 294.299 209.146 292.548 216.791 285.794C225.434 277.967 238.662 265.448 241.34 262.962C245.701 258.914 251 255.513 255.924 251.755C258.004 250.168 259.942 248.391 261.911 246.67C263.582 245.208 265.857 243.409 265.32 240.895Z" fill="#F2B6B1"/>
<path d="M227.813 248.167C228.045 253.259 234.551 261.985 241.341 262.96L243.272 261.257C243.272 261.257 243.946 262.802 242.099 264.829C240.252 266.856 238.608 268.325 236.723 267.755C233.905 266.903 229.895 264.843 226.954 260.947C223.964 256.987 223.34 254.57 223.06 252.483C222.782 250.414 223.464 249.251 224.999 248.004C227.083 246.311 228.408 245.946 229.083 246.637C229.085 246.638 228.548 247.351 227.813 248.167Z" fill="#111827"/>
<path d="M257.006 233.402C255.411 234.767 253.804 236.701 252.002 237.778C250.159 238.88 248.479 238.911 247.396 237.816C246.313 236.722 246.414 234.957 247.352 233.617C248.71 231.677 251.166 229.114 253.421 227.137" stroke="#111827" stroke-width="1.5" stroke-miterlimit="10" stroke-linecap="round" stroke-linejoin="round"/>
<path d="M260.505 239.697C258.91 241.062 257.384 242.431 255.677 243.653C254.055 244.814 252.139 245.425 250.601 243.956C249.488 242.892 249.913 241.253 250.851 239.914C252.209 237.974 254.665 235.411 256.92 233.433" stroke="#111827" stroke-width="1.5" stroke-miterlimit="10" stroke-linecap="round" stroke-linejoin="round"/>
<path d="M259.106 249.134C257.47 250.932 255.81 250.952 254.727 249.858C253.644 248.764 253.499 247.516 254.437 246.177C255.796 244.237 258.251 241.674 260.506 239.697" stroke="#111827" stroke-width="1.5" stroke-miterlimit="10" stroke-linecap="round" stroke-linejoin="round"/>
<path d="M246.877 237.05C247.852 242.522 244.667 246.589 241.946 249.568" stroke="#111827" stroke-width="1.5" stroke-miterlimit="10" stroke-linecap="round" stroke-linejoin="round"/>
<path d="M157.051 222.825C170.085 225.47 173.043 227.59 183.476 239.836C185.193 241.851 202.311 261.098 202.311 261.098C202.311 261.098 208.332 255.5 209.731 258.461L207.712 259.963C206.361 260.828 205.868 262.602 205.906 264.206C205.968 266.778 207.276 271.489 210 275.215C214.173 280.923 221.719 282.881 221.719 282.881L223.978 281.392C225.917 284.262 221.677 287.51 209.792 294.618C206.231 296.748 198.802 299.518 194.047 295.412C192.338 293.936 190.199 291.622 188.289 290.417C187.081 289.655 185.879 289.283 184.511 288.874C182.952 288.407 181.944 288.413 180.481 287.7C178.437 286.704 177.979 284.703 177.142 282.589C176.371 280.641 175.695 278.977 174.308 277.166C172.935 275.374 161.74 266.889 161.555 266.34C161.555 266.34 153.15 245.398 157.051 222.825Z" fill="#404D69" stroke="#111827" stroke-width="1.5" stroke-miterlimit="10" stroke-linecap="round" stroke-linejoin="round"/>
<path d="M202.311 261.099C197.263 264.69 194.006 271.012 192.149 277.184" stroke="#111827" stroke-width="1.5" stroke-miterlimit="10" stroke-linecap="round" stroke-linejoin="round"/>
<path d="M175.68 272.401C176.779 275.349 177.375 278.455 178.163 281.501C178.83 284.083 178.076 286.553 180.482 287.701" stroke="#111827" stroke-width="1.5" stroke-miterlimit="10" stroke-linecap="round" stroke-linejoin="round"/>
<path d="M221.718 282.882C217.595 281.533 213.138 279.658 209.999 275.216C207.364 271.486 206.232 266.764 205.905 264.207C205.695 262.568 206.386 260.951 207.711 259.964C210.489 257.894 215.226 254.377 215.894 253.972C217.784 252.826 218.225 254.628 218.225 254.628L216.803 256.528C216.803 256.528 215.171 260.965 219.444 267.412C222.872 272.584 228.498 274.541 228.529 274.521L231.719 272.295C231.719 272.295 232.991 273.407 230.435 275.883C228.501 277.757 221.718 282.882 221.718 282.882Z" fill="#404D69" stroke="#111827" stroke-width="1.5" stroke-miterlimit="10" stroke-linecap="round" stroke-linejoin="round"/>
<path d="M146.059 220.379L160.187 223.523C160.187 223.523 171.188 232.089 170.716 252.461C170.27 271.68 172.415 291.408 178.514 300.613C182.284 302.252 184.75 304.42 185.27 308.803C180.71 314.221 163.373 317.238 150.278 323.692C129.271 334.047 113.056 347.165 92.459 341.901C82.774 311.132 82.079 280.29 80.985 262.357C79.891 244.424 87.067 232.929 91.218 228.353L108.9 222.763C108.9 222.763 118.282 232.555 136.116 229.152C146.073 227.252 146.059 220.379 146.059 220.379Z" fill="#404D69" stroke="#111827" stroke-width="1.5" stroke-miterlimit="10" stroke-linecap="round" stroke-linejoin="round"/>
<path d="M146.059 220.379L160.187 223.523C160.187 223.523 171.188 232.089 170.716 252.461C170.27 271.68 172.415 291.408 178.514 300.613C182.284 302.252 184.75 304.42 185.27 308.803C180.71 314.221 163.373 317.238 150.278 323.692C129.271 334.047 113.056 347.165 92.459 341.901C82.774 311.132 82.079 280.29 80.985 262.357C79.891 244.424 87.067 232.929 91.218 228.353L108.9 222.763C108.9 222.763 118.282 232.555 136.116 229.152C146.073 227.252 146.059 220.379 146.059 220.379Z" fill="#404D69" stroke="#111827" stroke-width="1.5" stroke-miterlimit="10" stroke-linecap="round" stroke-linejoin="round"/>
<path d="M81.709 262.414C81.731 262.78 81.753 263.159 81.775 263.536C113.161 251.525 150.178 243.089 169.547 244.669C169.327 243.105 169.039 241.638 168.696 240.266C149.442 238.715 112.828 247.024 81.606 258.896C81.607 260.042 81.635 261.21 81.709 262.414Z" fill="#49A177"/>
<path d="M170.008 262.482C169.924 259.236 169.922 255.95 169.998 252.678C170.021 251.691 170.009 250.741 169.98 249.81C150.789 248.072 113.615 256.491 82.055 268.535C82.274 272.572 82.518 277.055 82.859 281.893C113.565 270.007 149.98 261.499 170.008 262.482Z" fill="#49A177"/>
<path d="M170.497 271.831C170.38 270.39 170.284 268.927 170.204 267.45C149.809 266.778 113.635 275.353 83.263 287.203C83.386 288.695 83.52 290.212 83.666 291.756C113.868 279.924 149.924 271.314 170.497 271.831Z" fill="#49A177"/>
<path d="M108.9 222.764C108.9 222.764 118.282 232.556 136.116 229.153C146.073 227.253 146.06 220.38 146.06 220.38L140.771 218.895C140.771 218.895 140.423 223.466 132.109 224.15C123.795 224.835 118.254 222.558 115.973 220.38L108.9 222.764Z" fill="#49A177" stroke="#111827" stroke-width="1.5" stroke-miterlimit="10" stroke-linecap="round" stroke-linejoin="round"/>
<path d="M163.328 327.506H196.333V333.528H160.551C159.686 333.528 158.985 332.827 158.985 331.962V331.849C158.986 329.45 160.93 327.506 163.328 327.506Z" fill="#111827"/>
<path d="M196.464 333.526L277.551 331.17C279.534 331.112 281.341 329.469 281.586 327.501L288.351 273.11C288.596 271.141 287.187 269.592 285.203 269.649L204.116 272.005C202.133 272.063 200.326 273.706 200.081 275.674L193.316 330.065C193.072 332.034 194.481 333.583 196.464 333.526Z" fill="#161C28"/>
<path d="M220.122 296.507C219.597 300.169 222.126 303.051 225.769 302.946C229.412 302.84 232.791 299.786 233.316 296.124C233.841 292.462 231.312 289.58 227.669 289.685C224.025 289.791 220.646 292.845 220.122 296.507Z" fill="#111827"/>
<path d="M227.511 293.739L227.126 296.364C227.062 296.802 227.511 297.135 227.912 296.947L230.168 295.886C230.339 295.806 230.457 295.644 230.482 295.457L230.842 292.753C230.901 292.309 230.438 291.982 230.039 292.185L227.807 293.325C227.648 293.407 227.537 293.561 227.511 293.739Z" fill="#FF95FB"/>
<path d="M226.748 298.814L226.415 300.602C226.321 301.109 226.908 301.46 227.309 301.136L229.726 299.19C229.837 299.101 229.909 298.972 229.928 298.831L230.067 297.787C230.127 297.337 229.652 297.009 229.253 297.225L227.03 298.428C226.882 298.507 226.779 298.649 226.748 298.814Z" fill="#FF95FB"/>
<path d="M226.49 293.883L226.096 296.66C226.042 297.042 225.623 297.254 225.283 297.071L223.168 295.932C222.961 295.82 222.846 295.59 222.883 295.358L223.325 292.51C223.385 292.123 223.816 291.918 224.154 292.116L226.221 293.326C226.415 293.439 226.522 293.659 226.49 293.883Z" fill="#FF95FB"/>
<path d="M225.724 298.751L225.427 300.845C225.355 301.354 224.69 301.5 224.411 301.069L222.57 298.224C222.496 298.109 222.466 297.972 222.487 297.837L222.558 297.378C222.618 296.991 223.049 296.786 223.387 296.984L225.454 298.194C225.65 298.307 225.756 298.527 225.724 298.751Z" fill="#FF95FB"/>
<path d="M256.244 307.204L228.13 308.021C227.271 308.046 226.6 307.283 226.736 306.434L227.691 300.454C227.795 299.803 228.347 299.319 229.005 299.299L257.119 298.482C257.978 298.457 258.649 299.22 258.513 300.069L257.558 306.049C257.455 306.7 256.903 307.185 256.244 307.204Z" fill="#F7F7F7"/>
<path d="M230.191 300.672L233.337 300.579C233.703 300.568 233.989 300.891 233.935 301.253L233.246 305.843C233.204 306.124 232.967 306.334 232.683 306.343L229.507 306.438C229.14 306.449 228.852 306.124 228.909 305.76L229.628 301.168C229.672 300.888 229.908 300.68 230.191 300.672Z" fill="#111827"/>
<path d="M235.572 300.536L237.191 300.5C237.555 300.492 237.839 300.814 237.785 301.174L237.096 305.765C237.054 306.047 236.814 306.258 236.529 306.265L234.88 306.303C234.514 306.312 234.23 305.987 234.286 305.625L235.005 301.032C235.049 300.751 235.288 300.542 235.572 300.536Z" fill="#111827"/>
<path d="M239.472 300.453L240.703 303.508L242.618 300.36C242.984 300.349 243.27 300.672 243.216 301.034L242.527 305.624C242.485 305.905 242.248 306.115 241.964 306.124L238.788 306.219C238.421 306.23 238.134 305.905 238.19 305.541L238.909 300.949C238.953 300.669 239.189 300.461 239.472 300.453Z" fill="#111827"/>
<path d="M244.853 300.316L246.472 300.28C246.836 300.272 247.12 300.594 247.066 300.954L246.377 305.545C246.335 305.827 246.095 306.038 245.81 306.045L244.161 306.083C243.795 306.091 243.511 305.767 243.567 305.405L244.286 300.812C244.33 300.532 244.568 300.323 244.853 300.316Z" fill="#111827"/>
<path d="M248.753 300.233L251.899 300.14C252.265 300.129 252.551 300.452 252.497 300.814L251.808 305.404C251.766 305.685 251.529 305.895 251.245 305.904L248.069 305.999C247.701 306.01 247.415 305.685 247.471 305.321L248.19 300.729C248.234 300.45 248.47 300.242 248.753 300.233Z" fill="#111827"/>
<path d="M249.433 301.801L250.841 301.759C251.005 301.754 251.133 301.899 251.109 302.061L250.801 304.115C250.782 304.241 250.676 304.335 250.549 304.339L249.128 304.382C248.964 304.387 248.835 304.241 248.861 304.079L249.183 302.024C249.201 301.898 249.306 301.804 249.433 301.801Z" fill="#F7F7F7"/>
<path d="M254.134 300.098L255.753 300.062C256.117 300.054 256.401 300.376 256.347 300.736L255.658 305.327C255.616 305.609 255.376 305.82 255.091 305.827L253.442 305.865C253.076 305.873 252.792 305.549 252.848 305.187L253.567 300.594C253.611 300.313 253.849 300.104 254.134 300.098Z" fill="#111827"/>
<path d="M262.061 313.701C264.154 311.646 264.282 308.381 262.345 306.41C260.409 304.439 257.143 304.507 255.05 306.563C252.957 308.619 252.83 311.883 254.766 313.854C256.702 315.825 259.969 315.757 262.061 313.701Z" fill="#F7F7F7"/>
<path d="M262.242 310.136C262.121 312.164 260.379 313.809 258.352 313.809C256.325 313.809 254.78 312.165 254.902 310.136C255.023 308.107 256.765 306.463 258.792 306.463C260.819 306.464 262.364 308.108 262.242 310.136Z" fill="#00BF63"/>
<path d="M206.474 328.931C205.322 328.931 204.385 328.828 203.527 328.608C203.3 328.549 202.696 328.395 202.199 327.84C201.791 327.392 201.577 326.805 201.572 326.106C201.562 324.492 202.246 323.173 202.796 322.115C202.959 321.801 203.115 321.5 203.244 321.213L203.177 321.183C202.666 320.961 201.967 320.658 201.381 320.019C200.712 319.288 200.387 318.311 200.464 317.27C200.551 316.089 201.152 314.94 202.07 314.193C203.3 313.193 204.777 312.94 206.096 312.853C207.053 311.753 208.357 311.151 209.797 311.151C211.821 311.151 213.83 312.339 214.914 314.175C215.887 315.824 215.928 317.706 215.027 319.337C214.589 320.129 213.999 320.639 213.524 321.049C213.276 321.263 213.062 321.447 212.942 321.61C212.842 321.745 212.764 321.876 212.704 322.009C212.509 322.444 212.494 322.954 212.483 323.893L212.481 324.067C212.455 326.081 211.694 327.603 210.339 328.354C209.474 328.835 208.573 328.871 207.977 328.893C207.479 328.911 206.976 328.931 206.474 328.931Z" fill="#F7F7F7"/>
<path d="M210.883 321.185C210.997 320.932 211.144 320.678 211.336 320.419C211.909 319.644 212.803 319.227 213.278 318.368C215.149 314.981 209.916 311.184 207.48 314.317C207.384 314.441 207.294 314.575 207.165 314.666C206.966 314.807 206.706 314.821 206.463 314.833C205.358 314.89 204.19 315.047 203.332 315.744C202.474 316.441 202.111 317.851 202.858 318.667C203.227 319.07 203.772 319.248 204.268 319.478C204.764 319.708 205.271 320.058 205.391 320.591C205.462 320.906 205.383 321.236 205.271 321.54C204.715 323.054 203.563 324.403 203.573 326.092C203.574 326.238 203.591 326.396 203.689 326.505C203.774 326.599 203.903 326.638 204.026 326.67C205.284 326.993 206.604 326.944 207.903 326.893C208.407 326.873 208.932 326.848 209.373 326.603C210.227 326.129 210.472 325.017 210.484 324.04C210.496 322.956 210.483 322.072 210.883 321.185Z" fill="#F7F7F7" stroke="#111827" stroke-width="1.5" stroke-miterlimit="10" stroke-linecap="round" stroke-linejoin="round"/>
<path d="M213.496 316.026C213.484 315.909 213.469 315.789 213.448 315.666C213.393 315.343 213.337 315.017 213.21 314.715C213.083 314.413 212.877 314.133 212.588 313.979C211.932 313.631 211.077 314.081 210.809 314.717C210.4 315.688 210.039 316.693 209.933 317.741C209.876 318.307 209.936 318.968 210.398 319.3C210.746 319.551 211.214 319.534 211.64 319.481C212.063 319.428 212.504 319.339 212.832 319.067C213.3 318.68 213.428 318.027 213.525 317.427C213.524 316.931 213.542 316.496 213.496 316.026Z" fill="#111827"/>
<path d="M207.343 317.377C205.916 317.872 204.289 317.756 202.947 317.063" stroke="#111827" stroke-width="1.5" stroke-miterlimit="10" stroke-linecap="round" stroke-linejoin="round"/>
<path d="M141.419 313.4C142.9 313.494 144.404 313.312 145.845 312.942C147.074 312.626 148.264 312.176 149.418 311.652C150.453 311.182 151.426 310.556 152.516 310.233C153.079 310.066 153.67 310.021 154.256 309.996C155.449 309.946 156.645 309.977 157.833 310.09C159.598 310.257 161.529 310.651 163.295 310.351C164.012 310.229 164.721 309.887 165.13 309.286C165.569 308.64 165.783 307.755 165.501 306.999C165.073 305.854 164.064 304.778 162.985 304.231C162.136 303.801 161.199 303.579 160.265 303.4C159.238 303.202 158.202 303.051 157.167 302.9C155.954 302.723 154.741 302.545 153.527 302.368C151.3 302.042 149.056 301.716 146.807 301.815C145.735 301.862 144.667 302.007 143.62 302.246C142.162 302.579 140.727 303.106 139.518 303.986C138.309 304.866 137.337 306.126 136.996 307.582C136.577 309.369 137.352 312.569 139.405 313.09C140.066 313.256 140.74 313.357 141.419 313.4Z" fill="#F2B6B1"/>
<path opacity="0.2" d="M141.419 313.4C142.9 313.494 144.404 313.312 145.845 312.942C147.074 312.626 148.264 312.176 149.418 311.652C150.453 311.182 151.426 310.556 152.516 310.233C153.079 310.066 153.67 310.021 154.256 309.996C155.449 309.946 156.645 309.977 157.833 310.09C159.598 310.257 161.529 310.651 163.295 310.351C164.012 310.229 164.721 309.887 165.13 309.286C165.569 308.64 165.783 307.755 165.501 306.999C165.073 305.854 164.064 304.778 162.985 304.231C162.136 303.801 161.199 303.579 160.265 303.4C159.238 303.202 158.202 303.051 157.167 302.9C155.954 302.723 154.741 302.545 153.527 302.368C151.3 302.042 149.056 301.716 146.807 301.815C145.735 301.862 144.667 302.007 143.62 302.246C142.162 302.579 140.727 303.106 139.518 303.986C138.309 304.866 137.337 306.126 136.996 307.582C136.577 309.369 137.352 312.569 139.405 313.09C140.066 313.256 140.74 313.357 141.419 313.4Z" fill="#111827"/>
<path d="M172.948 304.377C173.305 302.927 172.969 301.373 172.295 300.04C171.622 298.707 170.517 296.732 169.503 295.636C166.721 292.627 165.395 292.048 163.974 291.053C162.137 289.767 153.102 286.962 149.937 287.606C147.15 288.173 138.344 292.115 134.363 293.619C127.437 296.236 92.1433 297.078 92.1433 297.078L97.5833 264.971C97.5833 264.971 98.0793 244.579 91.0253 230.804C75.8413 235.388 74.1543 242.16 69.7683 251.749C65.3833 261.338 60.6643 301.03 60.6583 309.897C60.6493 322.593 66.7743 328.137 84.3273 325.063C101.841 321.995 119.627 315.161 126.923 313.558C132.682 312.292 133.771 314.295 137.952 313.966C140.298 313.781 141.961 313.11 143.897 311.827C145.008 311.091 146.226 309.452 147.432 308.852C149.496 307.826 150.805 308.162 151.994 308.976C153.445 309.969 154.662 311.307 156.023 313.4C156.405 313.987 156.829 314.586 157.72 314.922C158.375 315.17 159.355 315.089 159.886 314.633C160.36 314.226 160.447 313.167 160.381 312.824C159.639 308.937 158.421 307.624 156.919 305.904C156.333 305.232 155.2 304.087 153.955 303.08C156.252 303.654 157.993 304.966 159.794 306.414C161.526 307.806 162.442 309.957 164.098 311.429C164.94 312.177 166.141 312.751 167.173 312.3C167.944 311.964 168.876 310.606 168.702 309.783C169.071 310.186 169.826 310.523 170.645 310.331C172.626 309.867 172.809 306.912 171.967 305.24C172.429 305.422 172.83 304.858 172.948 304.377Z" fill="#F2B6B1"/>
<path d="M156.933 296.952C160.549 298.711 163.108 300.204 165.59 303.367C166.653 304.722 167.932 306.448 168.703 309.782" stroke="#111827" stroke-width="1.5" stroke-miterlimit="10" stroke-linecap="round" stroke-linejoin="round"/>
<path d="M160.871 293.165C166.603 295.929 169.823 300.106 172.335 305.133" stroke="#111827" stroke-width="1.5" stroke-miterlimit="10" stroke-linecap="round" stroke-linejoin="round"/>
<path d="M91.1473 228C75.0623 233.248 71.3813 238.585 67.4013 253.236C63.4223 267.887 62.1553 297.07 59.2613 300.476C56.3673 303.882 53.7173 308.788 59.1433 313.886C59.5053 322.42 61.6753 333.516 71.0973 333.599C80.7753 333.684 90.9843 331.438 94.5903 329.328C97.7803 327.461 96.4393 324.311 96.4393 324.311C94.4853 324.611 92.5823 323.521 91.8693 321.677C90.7213 318.707 89.4653 313.854 90.3873 308.194C91.7423 299.881 98.0863 295.499 98.0863 295.499C98.4903 293.621 96.7793 293.166 93.3443 293.621L98.0863 266.694C98.0863 266.694 101.279 239.78 91.1473 228Z" fill="#404D69" stroke="#111827" stroke-width="1.5" stroke-miterlimit="10" stroke-linecap="round" stroke-linejoin="round"/>
<path d="M96.3373 324.325C94.4553 324.596 92.6033 323.58 91.8673 321.827C90.5683 318.73 89.0723 313.577 90.3893 308.193C92.3893 300.011 98.0883 295.498 98.0883 295.498C107.288 294.149 113.049 292.672 113.049 296.193L110.357 296.518C107.939 298.981 103.757 304.264 103.497 311.552C103.357 315.481 105.308 320.213 105.308 320.213L107.976 319.21C109.47 322.826 103.764 323.256 96.3373 324.325Z" fill="#404D69" stroke="#111827" stroke-width="1.5" stroke-miterlimit="10" stroke-linecap="round" stroke-linejoin="round"/>
<path d="M68.1523 287.394C67.3723 290.599 65.9183 294.323 63.6503 296.719C61.4463 299.047 59.4463 300.417 57.5683 303.014" stroke="#111827" stroke-width="1.5" stroke-miterlimit="10" stroke-linecap="round" stroke-linejoin="round"/>
<path d="M93.3453 293.62C87.3763 294.968 84.5153 296.743 80.8913 299.622C77.2683 302.501 74.4863 306.323 72.2773 310.39" stroke="#111827" stroke-width="1.5" stroke-miterlimit="10" stroke-linecap="round" stroke-linejoin="round"/>
<path d="M129.441 294.608C126.443 294.916 123.967 300.529 123.73 303.977C123.492 307.426 125.244 312.435 126.925 313.558L128.607 313.261C128.607 313.261 128.531 314.024 127.334 314.481C125.998 314.992 122.848 316.229 121.363 315.932C119.717 315.603 115.986 310.39 116.613 303.891C117.303 296.733 121.295 294.584 122.365 294.226C123.435 293.868 129.126 293.411 130.086 293.402C131.305 293.391 131.305 294.345 131.305 294.345L129.441 294.608Z" fill="#111827"/>
<path d="M118.07 298.351L125.567 297.464C126.596 297.342 127.459 298.233 127.305 299.257L126.192 306.665C126.09 307.342 125.562 307.875 124.887 307.983L117.423 309.177C116.38 309.344 115.473 308.454 115.619 307.408L116.699 299.693C116.798 298.986 117.362 298.435 118.07 298.351Z" fill="#111827" stroke="#111827" stroke-width="1.5" stroke-miterlimit="10" stroke-linecap="round" stroke-linejoin="round"/>
<path d="M116.702 297.416L124.199 296.529C125.228 296.407 126.091 297.298 125.937 298.322L124.824 305.73C124.722 306.407 124.194 306.94 123.519 307.048L116.055 308.242C115.012 308.409 114.105 307.519 114.251 306.473L115.331 298.758C115.43 298.051 115.993 297.5 116.702 297.416Z" fill="#404D69" stroke="#111827" stroke-width="1.5" stroke-miterlimit="10" stroke-linecap="round" stroke-linejoin="round"/>
<path d="M83.67 178.209C80.983 176.371 78.743 173.965 77.265 171.444C84.721 166.433 89.519 158.64 89.519 149.88C89.519 134.762 75.246 122.506 57.639 122.506C40.032 122.506 25.759 134.762 25.759 149.88C25.759 164.998 40.032 177.254 57.639 177.254C60.702 177.254 63.659 176.876 66.462 176.184C70.772 179.649 76.639 181.379 82.844 180.995C84.295 180.906 84.87 179.03 83.67 178.209Z" fill="white" stroke="#111827" stroke-width="1.5" stroke-miterlimit="10" stroke-linecap="round" stroke-linejoin="round"/>
<path d="M74.128 146.548L70.548 146.248C70.258 145.218 69.858 144.228 69.338 143.318L71.658 140.578C72.008 140.158 71.988 139.538 71.598 139.148L68.368 135.928C67.978 135.538 67.358 135.508 66.938 135.868L64.208 138.178C63.288 137.658 62.308 137.258 61.268 136.968L60.978 133.398C60.928 132.848 60.468 132.428 59.918 132.428H55.358C54.808 132.428 54.348 132.848 54.308 133.398L54.008 136.968C52.968 137.258 51.988 137.658 51.068 138.178L48.338 135.868C47.918 135.508 47.298 135.538 46.908 135.928L43.678 139.148C43.298 139.538 43.268 140.158 43.618 140.578L45.938 143.318C45.418 144.228 45.018 145.218 44.728 146.248L41.148 146.548C40.608 146.588 40.188 147.048 40.188 147.598V152.168C40.188 152.708 40.608 153.168 41.148 153.218L44.728 153.518C45.018 154.548 45.418 155.528 45.938 156.448L43.618 159.178C43.268 159.598 43.298 160.218 43.678 160.608L46.908 163.838C47.298 164.228 47.918 164.248 48.338 163.898L51.078 161.588C51.988 162.098 52.968 162.508 54.008 162.798L54.308 166.368C54.348 166.918 54.808 167.338 55.358 167.338H59.918C60.468 167.338 60.928 166.918 60.978 166.368L61.268 162.798C62.308 162.508 63.288 162.098 64.208 161.588L66.938 163.898C67.358 164.248 67.978 164.228 68.368 163.838L71.598 160.608C71.988 160.218 72.008 159.598 71.658 159.178L69.338 156.448C69.858 155.528 70.258 154.548 70.548 153.518L74.128 153.218C74.678 153.168 75.098 152.708 75.098 152.168V147.598C75.098 147.048 74.678 146.588 74.128 146.548ZM57.638 157.968C53.168 157.968 49.548 154.348 49.548 149.878C49.548 145.418 53.168 141.788 57.638 141.788C62.108 141.788 65.728 145.418 65.728 149.878C65.728 154.348 62.107 157.968 57.638 157.968Z" fill="#49A177"/>
</svg>
