<svg xmlns="http://www.w3.org/2000/svg" xmlns:xlink="http://www.w3.org/1999/xlink" width="500" zoomAndPan="magnify" viewBox="0 0 375 374.999991" height="500" preserveAspectRatio="xMidYMid meet" version="1.0"><defs><g/></defs><g fill="#00bf63" fill-opacity="1"><g transform="translate(110.792845, 209.147139)"><g><path d="M 39.625 0 L 39.625 -39.171875 C 39.625 -41.578125 39.171875 -43.40625 38.265625 -44.65625 C 37.367188 -45.90625 36.296875 -46.726562 35.046875 -47.125 C 33.796875 -47.53125 32.71875 -47.757812 31.8125 -47.8125 C 30.914062 -47.863281 30.46875 -47.890625 30.46875 -47.890625 C 36.070312 -50.890625 40.925781 -52.035156 45.03125 -51.328125 C 49.132812 -50.628906 52.335938 -48.65625 54.640625 -45.40625 C 56.941406 -42.15625 58.09375 -38.078125 58.09375 -33.171875 L 58.09375 0 Z M 72.953125 0 L 72.953125 -39.171875 C 72.953125 -41.578125 72.5 -43.40625 71.59375 -44.65625 C 70.695312 -45.90625 69.648438 -46.726562 68.453125 -47.125 C 67.253906 -47.53125 66.203125 -47.757812 65.296875 -47.8125 C 64.398438 -47.863281 63.953125 -47.890625 63.953125 -47.890625 C 69.554688 -50.890625 74.40625 -52.035156 78.5 -51.328125 C 82.601562 -50.628906 85.78125 -48.65625 88.03125 -45.40625 C 90.289062 -42.15625 91.421875 -38.078125 91.421875 -33.171875 L 91.421875 0 Z M 6.296875 0 L 6.296875 -49.984375 L 24.921875 -49.984375 L 24.921875 0 Z M 6.296875 0 "/></g></g></g><g fill="#00bf63" fill-opacity="1"><g transform="translate(207.753387, 209.147139)"><g><path d="M 32.421875 0 L 32.421875 -39.171875 C 32.421875 -41.578125 31.894531 -43.53125 30.84375 -45.03125 C 29.789062 -46.53125 28.613281 -47.65625 27.3125 -48.40625 C 26.019531 -49.15625 24.847656 -49.679688 23.796875 -49.984375 C 22.742188 -50.285156 22.21875 -50.4375 22.21875 -50.4375 C 28.414062 -51.832031 33.640625 -51.804688 37.890625 -50.359375 C 42.148438 -48.910156 45.378906 -46.609375 47.578125 -43.453125 C 49.785156 -40.304688 50.890625 -36.878906 50.890625 -33.171875 L 50.890625 0 Z M 14.703125 -30.015625 C 12.203125 -30.015625 10.050781 -30.914062 8.25 -32.71875 C 6.445312 -34.519531 5.546875 -36.671875 5.546875 -39.171875 C 5.546875 -41.679688 6.445312 -43.8125 8.25 -45.5625 C 10.050781 -47.3125 12.203125 -48.1875 14.703125 -48.1875 C 17.210938 -48.1875 19.367188 -47.3125 21.171875 -45.5625 C 22.972656 -43.8125 23.875 -41.679688 23.875 -39.171875 C 23.875 -36.671875 22.972656 -34.519531 21.171875 -32.71875 C 19.367188 -30.914062 17.210938 -30.015625 14.703125 -30.015625 Z M 19.671875 1.34375 C 17.460938 1.75 15.234375 1.828125 12.984375 1.578125 C 10.734375 1.328125 8.804688 0.398438 7.203125 -1.203125 C 5.304688 -3.203125 4.234375 -5.648438 3.984375 -8.546875 C 3.734375 -11.453125 4.253906 -14.054688 5.546875 -16.359375 C 6.753906 -18.660156 8.457031 -20.585938 10.65625 -22.140625 C 12.851562 -23.691406 15.207031 -24.867188 17.71875 -25.671875 C 19.019531 -26.066406 20.296875 -26.3125 21.546875 -26.40625 C 22.796875 -26.507812 24.070312 -26.5625 25.375 -26.5625 C 24.164062 -25.5625 22.9375 -24.085938 21.6875 -22.140625 C 20.4375 -20.191406 19.507812 -18.066406 18.90625 -15.765625 C 18.3125 -13.460938 18.3125 -11.160156 18.90625 -8.859375 C 19.507812 -6.648438 20.785156 -4.945312 22.734375 -3.75 C 24.691406 -2.550781 26.769531 -2.148438 28.96875 -2.546875 C 27.769531 -1.546875 26.296875 -0.71875 24.546875 -0.0625 C 22.796875 0.582031 21.171875 1.050781 19.671875 1.34375 Z M 19.671875 1.34375 "/></g></g></g></svg>