<svg width="400" height="300" viewBox="0 0 400 300" fill="none" xmlns="http://www.w3.org/2000/svg">
<rect width="400" height="300" rx="32" fill="black"/>
<mask id="mask0_8_2" style="mask-type:luminance" maskUnits="userSpaceOnUse" x="176" y="21" width="48" height="168">
<path d="M176.565 21H223.435V188.609H176.565V21Z" fill="white"/>
</mask>
<g mask="url(#mask0_8_2)">
<path d="M191.062 21.225C191.964 20.6533 197.886 27.0352 222.91 62.8268C220.903 65.6772 218.347 69.6202 215.795 74.5404C214.428 77.1719 211.314 82.5928 209.743 88.7395C207.969 95.6951 205.399 105.754 208.782 117.973C212.16 130.165 219.628 137.873 223.443 141.295C222.405 142.087 221.368 142.88 220.332 143.673C218.55 142.712 215.361 141.293 211.168 141.029C208.952 140.889 204.997 140.599 201.506 142.764C197.265 145.392 195.925 149.892 195.153 152.477C191.019 166.344 200.829 183.495 202.627 186.554C201.794 187.131 200.961 187.709 200.13 188.289C180.564 169.216 172.423 148.248 179.137 137.301C180.911 134.41 185.227 129.77 191.824 128.038C201.672 125.452 209.948 131.104 211.334 132.083C203.167 117.744 195.001 103.405 186.833 89.0679C191.735 85.0782 199.025 77.924 201.827 67.3537C207.785 44.8773 189.399 22.2731 191.062 21.225Z" fill="white"/>
</g>
<path d="M136.899 196.582V196.26H140.791C141.98 196.26 143.066 196.207 144.049 196.099C145.031 195.992 146.026 195.884 147.032 195.776C148.036 195.666 149.168 195.609 150.423 195.609C152.733 195.609 154.689 196.053 156.29 196.939C157.89 197.826 159.105 199.032 159.934 200.555C160.766 202.079 161.184 203.805 161.184 205.731C161.184 207.048 160.945 208.319 160.47 209.543C159.998 210.763 159.291 211.856 158.351 212.819C157.41 213.779 156.247 214.54 154.862 215.104C153.48 215.666 151.891 215.945 150.095 215.945C149.142 215.945 148.179 215.858 147.204 215.686C146.233 215.513 145.348 215.309 144.55 215.07C143.751 214.832 143.114 214.615 142.639 214.419V219.67C142.639 221.789 142.692 223.487 142.8 224.765C142.907 226.041 143.171 226.959 143.595 227.523C144.016 228.085 144.691 228.364 145.621 228.364V228.686H136.899V228.364C137.827 228.364 138.502 228.085 138.925 227.523C139.347 226.959 139.612 226.041 139.72 224.765C139.826 223.487 139.881 221.789 139.881 219.67V205.276C139.881 203.134 139.826 201.433 139.72 200.169C139.612 198.903 139.347 197.99 138.925 197.429C138.502 196.865 137.827 196.582 136.899 196.582ZM142.639 214.097C143.459 214.442 144.46 214.729 145.638 214.955C146.816 215.182 148.108 215.294 149.513 215.294C151.133 215.294 152.504 214.988 153.63 214.373C154.754 213.756 155.668 212.961 156.37 211.989C157.073 211.015 157.585 209.977 157.908 208.875C158.233 207.774 158.397 206.736 158.397 205.76C158.397 203.795 157.995 202.089 157.194 200.641C156.395 199.191 155.261 198.066 153.791 197.268C152.32 196.466 150.58 196.064 148.569 196.064C147.383 196.064 146.347 196.148 145.46 196.312C144.573 196.473 143.632 196.736 142.639 197.101V214.097Z" fill="white"/>
<path d="M164.103 196.582V196.26H172.86V196.582C171.927 196.582 171.249 196.865 170.828 197.429C170.409 197.99 170.144 198.903 170.033 200.169C169.925 201.433 169.872 203.134 169.872 205.276V219.67C169.872 221.789 169.925 223.487 170.033 224.765C170.144 226.041 170.409 226.959 170.828 227.523C171.249 228.085 171.927 228.364 172.86 228.364V228.686H164.103V228.364C165.031 228.364 165.706 228.085 166.13 227.523C166.551 226.959 166.816 226.041 166.924 224.765C167.031 223.487 167.085 221.789 167.085 219.67V205.276C167.085 203.134 167.031 201.433 166.924 200.169C166.816 198.903 166.551 197.99 166.13 197.429C165.706 196.865 165.031 196.582 164.103 196.582Z" fill="white"/>
<path d="M174.803 223.009C174.803 221.671 175.115 220.467 175.742 219.399C176.371 218.328 177.177 217.355 178.16 216.48C179.141 215.602 180.183 214.802 181.286 214.079C182.391 213.354 183.435 212.685 184.418 212.07C185.4 211.453 186.204 210.864 186.831 210.303C187.46 209.738 187.775 209.177 187.775 208.616C187.775 208.313 187.697 208.092 187.544 207.953C187.395 207.812 187.212 207.74 186.997 207.74C186.606 207.74 186.243 207.913 185.909 208.259C185.575 208.604 185.244 209 184.919 209.445C184.597 209.887 184.245 210.279 183.865 210.625C183.488 210.97 183.072 211.143 182.616 211.143C182.163 211.143 181.886 210.962 181.787 210.596C181.691 210.228 181.719 209.839 181.873 209.427C182.368 208.13 182.82 206.926 183.232 205.812C183.642 204.699 184.047 203.618 184.447 202.57C184.85 201.519 185.26 200.433 185.679 199.311C186.101 198.187 186.571 196.954 187.09 195.609H187.418L197.793 223.009C198.507 224.783 199.176 226.118 199.802 227.017C200.431 227.915 201.243 228.364 202.238 228.364V228.686H191.598V228.364C192.745 228.364 193.616 228.213 194.212 227.909C194.806 227.607 195.19 227.183 195.363 226.642C195.536 226.101 195.556 225.476 195.426 224.765C195.295 224.051 195.078 223.284 194.776 222.462L190.757 211.857C190.887 212.893 190.953 214.192 190.953 215.749C190.953 218.363 190.546 220.698 189.732 222.75C188.922 224.804 187.755 226.416 186.232 227.587C184.707 228.752 182.865 229.337 180.705 229.337C179.449 229.337 178.384 229.045 177.509 228.462C176.634 227.879 175.963 227.106 175.5 226.141C175.035 225.178 174.803 224.135 174.803 223.009ZM177.561 222.393C177.561 223.91 178.013 225.186 178.92 226.222C179.829 227.258 181.073 227.777 182.651 227.777C184.012 227.777 185.191 227.411 186.186 226.677C187.179 225.94 188.005 224.978 188.661 223.792C189.321 222.603 189.813 221.305 190.135 219.9C190.461 218.495 190.625 217.134 190.625 215.812C190.625 214.603 190.586 213.524 190.51 212.571C190.436 211.62 190.248 210.668 189.945 209.715L186.024 199.375L182.294 209.295C182.078 209.856 182.019 210.251 182.115 210.481C182.21 210.708 182.389 210.821 182.651 210.821C183.019 210.821 183.376 210.648 183.721 210.303C184.067 209.957 184.412 209.564 184.758 209.122C185.103 208.677 185.463 208.282 185.84 207.936C186.22 207.588 186.626 207.412 187.061 207.412C187.363 207.412 187.616 207.516 187.821 207.723C188.028 207.928 188.132 208.246 188.132 208.679C188.132 209.393 187.875 210.048 187.366 210.642C186.859 211.238 186.204 211.817 185.403 212.381C184.604 212.942 183.75 213.535 182.841 214.16C181.934 214.786 181.08 215.483 180.278 216.25C179.48 217.019 178.828 217.9 178.321 218.893C177.814 219.887 177.561 221.055 177.561 222.393Z" fill="white"/>
<path d="M203.207 196.26H208.884L227.038 223.954V209.813C227.038 206.658 226.778 204.113 226.26 202.179C225.742 200.244 225.066 198.828 224.234 197.93C223.4 197.031 222.519 196.582 221.591 196.582V196.26H230.348V196.582C229.418 196.582 228.743 196.865 228.321 197.429C227.898 197.99 227.633 198.903 227.527 200.169C227.419 201.433 227.366 203.134 227.366 205.276V229.337H227.038L206.512 198.074V215.133C206.512 218.265 206.771 220.804 207.289 222.75C207.81 224.696 208.487 226.118 209.316 227.017C210.148 227.915 211.032 228.364 211.964 228.364V228.686H203.207V228.364C204.136 228.364 204.811 228.085 205.234 227.523C205.656 226.959 205.92 226.041 206.028 224.765C206.135 223.487 206.19 221.789 206.19 219.67V205.276C206.19 203.134 206.135 201.433 206.028 200.169C205.92 198.903 205.656 197.99 205.234 197.429C204.811 196.865 204.136 196.582 203.207 196.582V196.26Z" fill="white"/>
<path d="M247.694 229.337C245.681 229.337 243.801 228.919 242.051 228.087C240.301 227.255 238.765 226.077 237.445 224.552C236.128 223.029 235.102 221.24 234.365 219.186C233.631 217.134 233.265 214.896 233.265 212.473C233.265 210.032 233.631 207.791 234.365 205.748C235.102 203.703 236.128 201.918 237.445 200.394C238.765 198.871 240.301 197.692 242.051 196.859C243.801 196.027 245.681 195.609 247.694 195.609C249.704 195.609 251.586 196.027 253.336 196.859C255.086 197.692 256.619 198.871 257.936 200.394C259.256 201.918 260.282 203.703 261.016 205.748C261.753 207.791 262.122 210.032 262.122 212.473C262.122 214.896 261.753 217.134 261.016 219.186C260.282 221.24 259.256 223.029 257.936 224.552C256.619 226.077 255.086 227.255 253.336 228.087C251.586 228.919 249.704 229.337 247.694 229.337ZM247.694 196.001C246.008 196.001 244.464 196.413 243.059 197.233C241.654 198.055 240.436 199.206 239.409 200.687C238.384 202.17 237.589 203.91 237.025 205.91C236.464 207.906 236.184 210.094 236.184 212.473C236.184 214.831 236.485 217.014 237.088 219.025C237.694 221.033 238.528 222.778 239.587 224.259C240.646 225.741 241.873 226.893 243.266 227.713C244.662 228.535 246.139 228.945 247.694 228.945C249.251 228.945 250.728 228.535 252.121 227.713C253.514 226.893 254.741 225.741 255.8 224.259C256.859 222.778 257.691 221.033 258.299 219.025C258.905 217.014 259.209 214.831 259.209 212.473C259.209 210.094 258.926 207.906 258.362 205.91C257.801 203.91 257.006 202.17 255.979 200.687C254.954 199.206 253.736 198.055 252.328 197.233C250.924 196.413 249.378 196.001 247.694 196.001Z" fill="white"/>
<path d="M131 241.583H153.667V245.959H153.339C153.339 245.917 153.345 245.901 153.356 245.913C153.368 245.924 153.374 245.898 153.374 245.832C153.374 245.095 152.956 244.436 152.124 243.851C151.291 243.268 150.145 242.798 148.687 242.441C147.228 242.084 145.569 241.905 143.713 241.905V264.993C143.713 267.112 143.743 268.81 143.805 270.088C143.869 271.364 144.093 272.282 144.473 272.846C144.853 273.408 145.506 273.687 146.436 273.687V274.009H137.972V273.687C138.901 273.687 139.576 273.408 139.999 272.846C140.421 272.282 140.686 271.364 140.794 270.088C140.9 268.81 140.955 267.112 140.955 264.993V241.905C139.096 241.905 137.437 242.084 135.974 242.441C134.515 242.798 133.369 243.268 132.537 243.851C131.708 244.436 131.294 245.095 131.294 245.832C131.294 245.898 131.297 245.924 131.305 245.913C131.317 245.901 131.322 245.917 131.322 245.959H131V241.583Z" fill="white"/>
<path d="M155.61 241.905V241.583H164.368V241.905C163.435 241.905 162.757 242.188 162.335 242.752C161.916 243.313 161.651 244.226 161.541 245.492C161.433 246.756 161.379 248.457 161.379 250.599V264.993C161.379 267.093 161.742 268.836 162.468 270.221C163.193 271.603 164.172 272.633 165.404 273.313C166.636 273.992 168.019 274.332 169.555 274.332C171.089 274.332 172.463 273.986 173.672 273.295C174.881 272.604 175.836 271.568 176.539 270.186C177.241 268.802 177.592 267.07 177.592 264.993V250.599C177.592 248.457 177.538 246.756 177.431 245.492C177.323 244.226 177.058 243.313 176.637 242.752C176.214 242.188 175.538 241.905 174.61 241.905V241.583H183.367V241.905C182.437 241.905 181.762 242.188 181.341 242.752C180.917 243.313 180.653 244.226 180.546 245.492C180.438 246.756 180.385 248.457 180.385 250.599V264.993C180.385 267.158 179.897 268.954 178.922 270.382C177.951 271.807 176.644 272.875 175.002 273.589C173.358 274.303 171.543 274.66 169.555 274.66C167.566 274.66 165.739 274.309 164.074 273.606C162.407 272.904 161.077 271.839 160.084 270.411C159.089 268.983 158.593 267.178 158.593 264.993V250.599C158.593 248.457 158.538 246.756 158.432 245.492C158.324 244.226 158.059 243.313 157.637 242.752C157.214 242.188 156.539 241.905 155.61 241.905Z" fill="white"/>
<path d="M185.312 241.583H207.979V245.959H207.651C207.651 245.917 207.656 245.901 207.668 245.913C207.679 245.924 207.685 245.898 207.685 245.832C207.685 245.095 207.268 244.436 206.436 243.851C205.602 243.268 204.457 242.798 202.999 242.441C201.539 242.084 199.881 241.905 198.024 241.905V264.993C198.024 267.112 198.054 268.81 198.116 270.088C198.181 271.364 198.404 272.282 198.784 272.846C199.164 273.408 199.818 273.687 200.747 273.687V274.009H192.284V273.687C193.212 273.687 193.887 273.408 194.31 272.846C194.732 272.282 194.997 271.364 195.105 270.088C195.212 268.81 195.266 267.112 195.266 264.993V241.905C193.408 241.905 191.748 242.084 190.286 242.441C188.826 242.798 187.681 243.268 186.849 243.851C186.02 244.436 185.605 245.095 185.605 245.832C185.605 245.898 185.608 245.924 185.617 245.913C185.628 245.901 185.634 245.917 185.634 245.959H185.312V241.583Z" fill="white"/>
<path d="M225.323 274.66C223.311 274.66 221.431 274.242 219.681 273.41C217.931 272.578 216.395 271.4 215.075 269.875C213.758 268.352 212.732 266.563 211.995 264.509C211.26 262.457 210.895 260.219 210.895 257.796C210.895 255.355 211.26 253.114 211.995 251.071C212.732 249.026 213.758 247.241 215.075 245.717C216.395 244.194 217.931 243.015 219.681 242.182C221.431 241.35 223.311 240.932 225.323 240.932C227.334 240.932 229.215 241.35 230.966 242.182C232.716 243.015 234.249 244.194 235.566 245.717C236.886 247.241 237.912 249.026 238.646 251.071C239.383 253.114 239.751 255.355 239.751 257.796C239.751 260.219 239.383 262.457 238.646 264.509C237.912 266.563 236.886 268.352 235.566 269.875C234.249 271.4 232.716 272.578 230.966 273.41C229.215 274.242 227.334 274.66 225.323 274.66ZM225.323 241.324C223.638 241.324 222.093 241.736 220.688 242.556C219.284 243.378 218.066 244.529 217.038 246.011C216.013 247.493 215.219 249.233 214.655 251.233C214.093 253.229 213.814 255.417 213.814 257.796C213.814 260.154 214.115 262.337 214.718 264.348C215.324 266.356 216.157 268.101 217.217 269.582C218.276 271.064 219.502 272.216 220.896 273.036C222.292 273.858 223.769 274.268 225.323 274.268C226.881 274.268 228.357 273.858 229.751 273.036C231.144 272.216 232.37 271.064 233.43 269.582C234.489 268.101 235.321 266.356 235.928 264.348C236.534 262.337 236.838 260.154 236.838 257.796C236.838 255.417 236.556 253.229 235.992 251.233C235.43 249.233 234.636 247.493 233.608 246.011C232.583 244.529 231.366 243.378 229.958 242.556C228.553 241.736 227.007 241.324 225.323 241.324Z" fill="white"/>
<path d="M242.671 274.009V273.687C243.599 273.687 244.274 273.408 244.698 272.846C245.119 272.282 245.384 271.364 245.492 270.088C245.599 268.81 245.653 267.112 245.653 264.993V250.599C245.653 248.457 245.599 246.756 245.492 245.492C245.384 244.226 245.119 243.313 244.698 242.752C244.274 242.188 243.599 241.905 242.671 241.905V241.583H246.563C247.752 241.583 248.839 241.53 249.822 241.422C250.803 241.315 251.798 241.207 252.804 241.099C253.809 240.989 254.94 240.932 256.195 240.932C258.506 240.932 260.462 241.328 262.062 242.118C263.663 242.906 264.878 243.981 265.707 245.343C266.539 246.706 266.956 248.273 266.956 250.047C266.956 251.518 266.572 252.901 265.805 254.198C265.036 255.496 263.962 256.54 262.58 257.33C261.199 258.117 259.566 258.51 257.687 258.51C256.927 258.51 256.221 258.409 255.574 258.205C254.929 257.998 254.341 257.754 253.812 257.474C253.282 257.19 252.8 256.947 252.367 256.742C251.932 256.535 251.543 256.432 251.198 256.432C251.002 256.432 250.796 256.482 250.582 256.581C250.366 256.678 250.259 256.909 250.259 257.278C250.259 257.69 250.497 258.058 250.973 258.383C251.448 258.706 252.064 259.031 252.821 259.356C253.577 259.679 254.387 260.036 255.251 260.427C256.115 260.816 256.945 261.289 257.744 261.849C258.546 262.411 259.206 263.102 259.725 263.922C260.372 264.921 261.043 265.988 261.734 267.123C262.428 268.256 263.159 269.32 263.928 270.313C264.695 271.308 265.499 272.119 266.34 272.748C267.184 273.374 268.07 273.687 269 273.687V274.009H264.037C263.671 274.009 263.312 273.858 262.955 273.554C262.598 273.252 262.16 272.74 261.642 272.017C261.124 271.292 260.457 270.304 259.644 269.052C258.834 267.797 257.792 266.206 256.518 264.279C255.738 263.093 254.959 262.155 254.18 261.464C253.404 260.77 252.696 260.213 252.056 259.794C251.418 259.372 250.906 258.971 250.518 258.591C250.13 258.211 249.937 257.753 249.937 257.215C249.937 256.823 250.054 256.541 250.288 256.368C250.526 256.196 250.786 256.109 251.071 256.109C251.546 256.109 252.011 256.201 252.464 256.386C252.916 256.57 253.387 256.787 253.875 257.036C254.362 257.282 254.897 257.497 255.481 257.681C256.064 257.865 256.734 257.957 257.491 257.957C258.504 257.957 259.421 257.731 260.243 257.278C261.068 256.826 261.771 256.227 262.356 255.482C262.939 254.733 263.386 253.89 263.697 252.948C264.011 252.008 264.169 251.053 264.169 250.081C264.169 248.285 263.768 246.739 262.966 245.441C262.167 244.144 261.033 243.143 259.563 242.441C258.092 241.738 256.352 241.387 254.341 241.387C253.155 241.387 252.119 241.471 251.232 241.635C250.346 241.796 249.404 242.059 248.411 242.424V264.993C248.411 267.112 248.464 268.81 248.572 270.088C248.679 271.364 248.944 272.282 249.367 272.846C249.789 273.408 250.464 273.687 251.394 273.687V274.009H242.671Z" fill="white"/>
</svg>
