<svg width="400" height="300" viewBox="0 0 400 300" fill="none" xmlns="http://www.w3.org/2000/svg">
<rect width="400" height="300" rx="32" fill="#12593F"/>
<g clip-path="url(#clip0_1_193)">
<path d="M253.333 40H146.667C131.939 40 120 51.9391 120 66.6667V173.333C120 188.061 131.939 200 146.667 200H253.333C268.061 200 280 188.061 280 173.333V66.6667C280 51.9391 268.061 40 253.333 40Z" fill="#F5F5DC"/>
<path d="M156.923 162.794V97.9687L200 111.345L243.077 97.8723V162.794L200 176.17L156.923 162.794Z" fill="#192841"/>
<path d="M200 104.681C213.595 104.681 224.615 93.2499 224.615 79.149C224.615 65.0481 213.595 53.6171 200 53.6171C186.405 53.6171 175.385 65.0481 175.385 79.149C175.385 93.2499 186.405 104.681 200 104.681Z" fill="#12593F"/>
<path d="M253.803 127.116C252.615 121.513 246.759 112.251 242.758 116.685C240.847 118.803 242.906 122.052 240.837 123.987C239.217 125.502 237.378 124.338 235.555 125.552C233.157 127.149 232.304 128.985 231.233 131.811C229.803 135.583 229.775 138.304 230.753 142.243C231.905 146.884 233.351 150.409 237.476 152.153C240.272 153.335 242.304 153.153 245.159 152.153C250.372 150.327 252.615 145.507 253.803 140.156C254.991 134.806 254.991 132.72 253.803 127.116Z" fill="#12593F" stroke="#F5F5DC" stroke-width="0.5"/>
<path d="M145.211 127.116C146.399 121.513 152.255 112.251 156.256 116.685C158.168 118.803 156.108 122.052 158.177 123.987C159.797 125.502 161.637 124.338 163.46 125.552C165.858 127.149 166.711 128.985 167.782 131.811C169.211 135.583 169.239 138.304 168.262 142.243C167.11 146.884 165.663 150.409 161.539 152.153C158.742 153.335 156.711 153.153 153.855 152.153C148.642 150.327 146.399 145.507 145.211 140.156C144.023 134.806 144.023 132.72 145.211 127.116Z" fill="#12593F" stroke="#F5F5DC" stroke-width="0.5"/>
</g>
<path d="M157.02 246.48C155.153 246.48 153.42 246.133 151.82 245.44C150.22 244.72 148.86 243.747 147.74 242.52C146.62 241.293 145.793 239.88 145.26 238.28L149.26 236.6C149.98 238.44 151.033 239.853 152.42 240.84C153.807 241.827 155.407 242.32 157.22 242.32C158.287 242.32 159.22 242.16 160.02 241.84C160.82 241.493 161.433 241.013 161.86 240.4C162.313 239.787 162.54 239.08 162.54 238.28C162.54 237.187 162.233 236.32 161.62 235.68C161.007 235.04 160.1 234.533 158.9 234.16L153.3 232.4C151.06 231.707 149.353 230.653 148.18 229.24C147.007 227.8 146.42 226.12 146.42 224.2C146.42 222.52 146.833 221.053 147.66 219.8C148.487 218.52 149.62 217.52 151.06 216.8C152.527 216.08 154.193 215.72 156.06 215.72C157.847 215.72 159.473 216.04 160.94 216.68C162.407 217.293 163.66 218.147 164.7 219.24C165.767 220.333 166.54 221.6 167.02 223.04L163.1 224.76C162.513 223.187 161.593 221.973 160.34 221.12C159.113 220.267 157.687 219.84 156.06 219.84C155.073 219.84 154.207 220.013 153.46 220.36C152.713 220.68 152.127 221.16 151.7 221.8C151.3 222.413 151.1 223.133 151.1 223.96C151.1 224.92 151.407 225.773 152.02 226.52C152.633 227.267 153.567 227.827 154.82 228.2L160.02 229.84C162.393 230.56 164.18 231.6 165.38 232.96C166.58 234.293 167.18 235.96 167.18 237.96C167.18 239.613 166.74 241.08 165.86 242.36C165.007 243.64 163.82 244.653 162.3 245.4C160.78 246.12 159.02 246.48 157.02 246.48ZM172.478 246V216.2H177.198V246H172.478ZM193.817 246.48C191.95 246.48 190.217 246.133 188.617 245.44C187.017 244.72 185.657 243.747 184.537 242.52C183.417 241.293 182.59 239.88 182.057 238.28L186.057 236.6C186.777 238.44 187.83 239.853 189.217 240.84C190.604 241.827 192.204 242.32 194.017 242.32C195.084 242.32 196.017 242.16 196.817 241.84C197.617 241.493 198.23 241.013 198.657 240.4C199.11 239.787 199.337 239.08 199.337 238.28C199.337 237.187 199.03 236.32 198.417 235.68C197.804 235.04 196.897 234.533 195.697 234.16L190.097 232.4C187.857 231.707 186.15 230.653 184.977 229.24C183.804 227.8 183.217 226.12 183.217 224.2C183.217 222.52 183.63 221.053 184.457 219.8C185.284 218.52 186.417 217.52 187.857 216.8C189.324 216.08 190.99 215.72 192.857 215.72C194.644 215.72 196.27 216.04 197.737 216.68C199.204 217.293 200.457 218.147 201.497 219.24C202.564 220.333 203.337 221.6 203.817 223.04L199.897 224.76C199.31 223.187 198.39 221.973 197.137 221.12C195.91 220.267 194.484 219.84 192.857 219.84C191.87 219.84 191.004 220.013 190.257 220.36C189.51 220.68 188.924 221.16 188.497 221.8C188.097 222.413 187.897 223.133 187.897 223.96C187.897 224.92 188.204 225.773 188.817 226.52C189.43 227.267 190.364 227.827 191.617 228.2L196.817 229.84C199.19 230.56 200.977 231.6 202.177 232.96C203.377 234.293 203.977 235.96 203.977 237.96C203.977 239.613 203.537 241.08 202.657 242.36C201.804 243.64 200.617 244.653 199.097 245.4C197.577 246.12 195.817 246.48 193.817 246.48ZM209.275 246V216.2H228.915V220.4H213.995V228.96H228.115V233.16H213.995V241.8H228.915V246H209.275ZM233.299 246V216.2H244.139C246.139 216.2 247.899 216.573 249.419 217.32C250.965 218.04 252.165 219.107 253.019 220.52C253.872 221.907 254.299 223.573 254.299 225.52C254.299 227.44 253.859 229.093 252.979 230.48C252.125 231.867 250.939 232.933 249.419 233.68C247.899 234.427 246.139 234.8 244.139 234.8H238.019V246H233.299ZM238.019 230.6H244.259C245.325 230.6 246.259 230.387 247.059 229.96C247.859 229.533 248.485 228.947 248.939 228.2C249.392 227.427 249.619 226.52 249.619 225.48C249.619 224.44 249.392 223.547 248.939 222.8C248.485 222.027 247.859 221.44 247.059 221.04C246.259 220.613 245.325 220.4 244.259 220.4H238.019V230.6Z" fill="#F5F5DC"/>
<defs>
<clipPath id="clip0_1_193">
<rect x="120" y="40" width="160" height="160" rx="32" fill="white"/>
</clipPath>
</defs>
</svg>
